<svg xmlns="http://www.w3.org/2000/svg" xmlns:xlink="http://www.w3.org/1999/xlink" viewBox="0 0 88 88" width="88" height="88" class="w-full h-full"><path fill="white" transform="matrix(0.955659 0 0 0.955659 43.972 23.4088)" d="M3.6249 4.66315L1.1204 4.98655L0.0493038 7.08205L-1.0128 5.00535L-3.6256 4.66795C-3.6256 4.66795 -2.4157 2.24355 -2.4157 2.24355C-2.0186 2.37015 -1.2682 2.60935 -0.714296 2.78185C-0.714296 2.78185 -1.416 -1.42785 -1.416 -1.42785L0.0493038 -7.08205L1.514 -1.42785C1.514 -1.42785 0.819804 2.73325 0.819804 2.73325C1.3793 2.55935 2.0721 2.34095 2.4219 2.22825C2.4219 2.22825 3.5777 4.54425 3.5777 4.54425L3.5798 4.54975L3.6256 4.66175L3.6249 4.66315Z"></path><path fill="white" transform="matrix(0.955659 0 0 0.955659 47.056 23.121)" d="M0.98845 -4.97125L0.98845 4.97125L0.82125 4.63675L0.82125 4.63605L-0.49145 2.00855L-0.50815 1.89515L-0.98845 -1.46745L0.98845 -4.97125Z"></path><path fill="white" transform="matrix(0.955659 0 0 0.955659 40.9002 23.121)" d="M0.988454 -1.46745L0.503954 1.91185L0.490754 2.00855L-0.988446 4.97125L-0.988446 -4.97125L0.988454 -1.46745Z"></path><path fill="white" transform="matrix(0.955659 0 0 0.955659 43.8618 55.1769)" d="M5.56115 -1.84685L1.70595 1.84685L-1.70855 1.84685L-5.56115 -1.84685L5.56115 -1.84685Z"></path><path fill="white" transform="matrix(0.955659 0 0 0.955659 39.5011 61.0916)" d="M1.8437 -3.7313L-1.8437 -3.7313L-1.8437 3.7313L1.8437 3.7313L1.8437 -3.7313Z"></path><path fill="white" transform="matrix(0.955659 0 0 0.955659 27.9946 59.5529)" d="M1.8444 -1.8112L1.8444 5.3414L-1.8444 5.3414L-1.8444 -5.3414L1.8444 -1.8112Z"></path><path fill="white" transform="matrix(0.955659 0 0 0.955659 33.7118 55.177)" d="M7.863 1.84745L-4.0091 1.84745L-7.863 -1.84265L-7.863 -1.84745L-1.2373 -1.84745L-1.238 -1.84625L4.0029 -1.84625L7.863 1.84745Z"></path><path fill="white" transform="matrix(0.955659 0 0 0.955659 33.7485 49.3068)" d="M7.8616 -3.6586L7.8616 0.0355038C7.8616 0.0355038 7.8547 0.0355038 7.8547 0.0355038C7.8526 1.1406 7.8478 2.0823 7.8478 2.0823C7.8478 2.0823 6.1651 2.0823 6.1651 2.0823L3.9688 0.0355038L2.0245 0.0355038L-0.696596 3.6586L-7.8623 3.6586L-7.8623 -3.6107L-4.175 -3.6107L-4.175 1.5921L-3.7606 1.5921L0.178004 -3.649L0.180804 -3.6462L0.180804 -3.6582L7.8623 -3.6582L7.8616 -3.6586Z"></path><path fill="white" transform="matrix(0.955659 0 0 0.955659 54.0096 61.1532)" d="M8.08305 -0.0180962L8.08305 3.6791L0.402454 3.6791L-7.13475 3.6667L-8.08305 3.6667L-8.08305 -3.6791L-4.11175 -3.6791L-4.11175 -0.0180962L4.19015 -0.0180962L6.38655 -2.0646C6.38655 -2.0646 8.06995 -2.0646 8.06995 -2.0646C8.06995 -2.0646 8.07475 -1.1225 8.07755 -0.0180962C8.07755 -0.0180962 8.08225 -0.0180962 8.08225 -0.0180962L8.08305 -0.0180962Z"></path><path fill="white" transform="matrix(0.955659 0 0 0.955659 54.1084 55.177)" d="M3.9238 1.84705L-1.317 1.84705L-1.3162 1.84745L-7.9414 1.84745L-7.9414 1.84265L-4.0872 -1.84745L7.9414 -1.84745L3.9238 1.84705Z"></path><path fill="white" transform="matrix(0.955659 0 0 0.955659 54.0082 49.4579)" d="M8.11005 -3.65025L8.11005 3.65935L4.42275 3.65935L4.42275 0.0350538L-4.21795 0.0350538L-6.41435 2.08195C-6.41435 2.08195 -8.09695 2.08195 -8.09695 2.08195C-8.09695 2.08195 -8.10185 1.14015 -8.10385 0.0350538C-8.10385 0.0350538 -8.11085 0.0350538 -8.11085 0.0350538L-8.11085 -3.65935L-0.42945 -3.65935L8.11085 -3.64945L8.11005 -3.65025Z"></path><path fill="white" transform="matrix(0.495273 -0.868737 0.868737 0.495273 16.9506 55.2749)" d="M4.44495e-07 -1.81303e-06C4.44495e-07 -1.81303e-06 -10.9421 0.729476 -1.42823 1.96896M46.2935 -0.147361C46.2935 -0.147361 58.9639 -1.14939 48.1318 2.41667"></path><path fill="white" transform="matrix(0.473313 -0.830217 0.830217 0.473313 44 44.0001)" d="M34.5241 0.0128528C34.5241 -4.75115 33.5592 -9.28775 31.8196 -13.4174C31.8196 -13.4174 33.623 -14.4544 33.623 -14.4544L32.9666 -19.0612L29.4244 -21.7861C29.4244 -21.7861 27.6091 -20.7429 27.6091 -20.7429C22.1077 -28.0781 13.7675 -33.1502 4.22015 -34.3173C4.22015 -34.3173 4.22015 -36.4113 4.22015 -36.4113L0.0975519 -38.1333L-4.21725 -36.4113C-4.21725 -36.4113 -4.21725 -34.318 -4.21725 -34.318C-13.766 -33.1523 -22.1091 -28.0809 -27.6109 -20.7464C-27.6109 -20.7464 -29.4213 -21.7868 -29.4213 -21.7868L-32.9636 -19.062L-33.6203 -14.4551C-33.6203 -14.4551 -31.8189 -13.4196 -31.8189 -13.4196C-33.5584 -9.28845 -34.5241 -4.75115 -34.5241 0.0128548C-34.5241 4.77705 -33.5654 9.30155 -31.8314 13.4265C-31.8314 13.4265 -33.6202 14.4551 -33.6202 14.4551L-32.9636 19.0618L-29.4213 21.787C-29.4213 21.787 -27.6283 20.756 -27.6283 20.756C-22.1257 28.101 -13.7744 33.1788 -4.21725 34.3453C-4.21725 34.3453 -4.21725 36.4113 -4.21725 36.4113L-0.0954458 38.1334L4.21945 36.4113C4.21945 36.4113 4.21945 34.3445 4.21945 34.3445C13.7759 33.1776 22.1272 28.0998 27.629 20.7548C27.629 20.7548 29.4236 21.7862 29.4236 21.7862L32.9658 19.0614L33.6226 14.4543C33.6226 14.4543 31.8316 13.4253 31.8316 13.4253C33.5648 9.30035 34.5241 4.76935 34.5241 0.0128528ZM20.5355 23.0779C20.5355 23.0779 18.9222 24.4337 18.9222 24.4337C13.7045 28.5211 7.13625 30.9581 -0.000345985 30.9581C-7.13695 30.9581 -13.705 28.5211 -18.9229 24.4337C-18.9229 24.4337 -20.4223 23.1787 -20.4223 23.1787C-26.7557 17.5354 -30.7478 9.31155 -30.7478 0.151255C-30.7478 -6.09065 -28.8931 -11.8971 -25.7089 -16.7502C-25.7089 -16.7502 -25.7062 -16.7537 -25.702 -16.7599C-25.7569 -16.7738 -25.8103 -16.787 -25.8631 -16.7989C-25.8631 -16.7989 -29.6038 -17.6786 -29.6038 -17.6786C-29.6038 -17.6786 -26.3719 -18.4096 -26.3719 -18.4096C-25.6999 -18.5751 -24.9954 -18.685 -24.2686 -18.7413C-24.0708 -19.0112 -23.9319 -19.1983 -23.925 -19.1983C-18.3787 -26.073 -9.94195 -30.5081 -0.465348 -30.6493C-0.465348 -30.6493 0.530052 -30.6493 0.530052 -30.6493C9.98015 -30.4879 18.3913 -26.0571 23.9246 -19.1976C23.9334 -19.1976 24.0765 -19.0105 24.2777 -18.7393C24.9823 -18.6829 25.6682 -18.5751 26.3254 -18.4158C26.3254 -18.4158 29.5033 -17.6633 29.5033 -17.6633C29.5033 -17.6633 25.8368 -16.7975 25.8368 -16.7975C25.7918 -16.787 25.7479 -16.7752 25.7037 -16.7641C25.732 -16.7217 25.7467 -16.6966 25.7443 -16.6959C28.9071 -11.8547 30.7472 -6.06775 30.7472 0.150553C30.7472 9.25575 26.8036 17.4374 20.5355 23.0779Z"></path><path fill="white" transform="matrix(0.573396 0 0 0.573396 43.9786 35.4689)" d="M2.9342 -2.85355C3.359 -5.20915 2.3788 -6.50135 2.3788 -6.50135C2.3788 -6.50135 2.2484 -4.24385 0.0472 -4.24385C0.0472 -4.24385 -0.0243 -4.24385 -0.0243 -4.24385C-2.2269 -4.24385 -2.356 -6.50135 -2.356 -6.50135C-2.356 -6.50135 -3.3375 -5.20915 -2.9113 -2.85355C-2.9113 -2.85355 -5.7504 2.98495 -5.7504 2.98495C-5.7504 2.98495 -6.8319 4.77655 -7.2796 5.52905C-6.8319 5.41635 -6.3627 5.35795 -5.8802 5.35795C-2.7239 5.35795 -0.1666 6.99855 -0.0493 10.1309C-0.0493 10.1309 0.0166 10.4649 0.0166 10.4649C0.0166 10.4649 0.0902 10.1309 0.0902 10.1309C0.2173 7.00625 2.7814 5.35795 5.9328 5.35795C6.3557 5.35795 6.7666 5.40595 7.1635 5.49285C6.714 4.73755 5.71046 2.98499 5.71046 2.98499C5.71046 2.98499 2.9342 -2.85355 2.9342 -2.85355ZM-1.4168 -2.45715C-1.4779 -2.45715 -1.5272 -2.50785 -1.5272 -2.57045C-1.5272 -2.63305 -1.4779 -2.68105 -1.4168 -2.68105C-1.3557 -2.68105 -1.3064 -2.63165 -1.3064 -2.57045C-1.3064 -2.50925 -1.3557 -2.45715 -1.4168 -2.45715ZM1.5119 -2.43065C1.4501 -2.43065 1.3994 -2.48145 1.3994 -2.54405C1.3994 -2.60665 1.4501 -2.65395 1.5119 -2.65395C1.5736 -2.65395 1.6222 -2.60455 1.6222 -2.54405C1.6222 -2.48355 1.5729 -2.43065 1.5119 -2.43065Z"></path><path fill="white" transform="matrix(0.573396 0 0 0.573396 43.9786 35.4689)" d="M-8.13723 -3.26696C-8.13723 -3.26696 -11.2237 -2.63636 -11.3703 -2.59406C-11.5999 -2.5345 -13.5103 -1.95289 -13.6057 -1.94405C-14.0177 -1.78884 -14.4116 -1.65456 -14.7834 -1.54044C-14.9789 -1.44921 -15.1448 -1.38649 -15.2819 -1.35376C-15.4077 -1.287 -15.5024 -1.25023 -15.5648 -1.24296C-15.6865 -1.17825 -15.7764 -1.14339 -15.833 -1.13802C-16.022 -1.04348 -16.1817 -0.977292 -16.3098 -0.942438C-17.4791 -0.428224 -18.642 0.145523 -19.7267 0.796479C-19.8568 0.884309 -19.9515 0.945615 -20.0164 0.974034C-20.148 1.06724 -20.2438 1.12953 -20.311 1.16439C-20.5545 1.33608 -20.7651 1.47693 -20.9425 1.59516C-21.7378 2.16919 -22.4629 2.76938 -23.0946 3.4011C-23.8627 4.16924 -24.5233 4.98517 -25.0388 5.85781C-23.8013 4.75593 -22.3724 3.81201 -20.8157 3.02153C-20.5835 2.92106 -20.3158 2.79498 -20.0143 2.64394C-19.949 2.6298 -19.8498 2.58667 -19.7187 2.51461C-19.7059 2.52635 -19.6613 2.50528 -19.5856 2.45719C-19.479 2.42927 -19.3395 2.3705 -19.1686 2.28614C-19.0989 2.2754 -18.9967 2.23516 -18.8637 2.16805C-18.7767 2.15088 -18.6559 2.10576 -18.5022 2.03179C-18.3823 2.00627 -18.2295 1.95388 -18.0464 1.87206C-17.8873 1.83678 -17.6942 1.77654 -17.4723 1.68538C-18.3493 2.07762 -19.193 2.44928 -19.9571 2.88188C-20.1383 2.99714 -20.2895 3.08546 -20.4075 3.14428C-20.5615 3.24923 -20.6843 3.32383 -20.7752 3.36943C-22.0258 4.16366 -23.1603 5.05822 -24.1474 6.03741C-23.2208 5.47583 -21.9352 4.84121 -20.5823 4.63522C-20.5798 4.66125 -20.545 4.65686 -20.4831 4.62256C-20.4487 4.64711 -20.3863 4.63982 -20.289 4.60552C-20.2787 4.63254 -20.235 4.62815 -20.1598 4.59725C-20.1259 4.62342 -20.0596 4.62193 -19.9628 4.59117C-19.9313 4.61762 -19.867 4.62016 -19.7737 4.59279C-19.7442 4.62229 -19.6887 4.62476 -19.6042 4.59937C-19.5771 4.63226 -19.5221 4.63622 -19.4357 4.61174C-19.444 4.64463 -19.4243 4.64661 -19.3737 4.61867C-19.3472 4.65404 -19.2917 4.66146 -19.2057 4.64144C-19.1309 4.68769 -19.0258 4.70742 -18.8902 4.70367C-18.8745 4.74292 -18.8312 4.75678 -18.7531 4.73669C-18.7447 4.78047 -18.703 4.79079 -18.6337 4.77367C-18.5157 4.84941 -18.3726 4.90407 -18.1987 4.93864C-18.1815 4.99026 -18.1343 5.01289 -18.0552 5.00652C-18.0802 5.03948 -18.0783 5.04146 -18.0449 5.01303C-18.0025 5.07887 -17.9352 5.11479 -17.8344 5.12616C-17.7219 5.2427 -17.5783 5.33717 -17.4102 5.41502C-17.303 5.55369 -17.1657 5.67411 -17.0015 5.77649C-16.4654 6.37443 -15.9587 7.17374 -15.516 8.23984C-15.5469 8.27074 -13.0892 4.35641 -13.0892 4.35641L-8.13723 -3.26696ZM-8.13676 -3.26603L-14.8931 2.81586C-14.8931 2.81586 -17.369 6.02009 -17.3389 6.00274C-15.8421 5.39396 -12.5478 4.49418 -9.45348 6.65234C-9.11281 5.19322 -8.43148 2.65973 -8.02384 1.22776C-7.971 1.14929 -8.13676 -3.26603 -8.13676 -3.26603ZM-2.92029 -2.85459C-2.92029 -2.85459 -3.96104 -2.02525 -4.71586 -1.84496C-5.54295 -1.67305 -5.95423 -1.74722 -6.36601 -1.87519C-7.20426 -2.06771 -8.13509 -3.26881 -8.13509 -3.26881L-9.18909 1.10109C-9.18909 1.10109 -10.7843 4.51189 -11.0427 5.85513C-10.8878 5.63835 -10.2336 5.24712 -9.20092 4.94844C-8.37037 4.74786 -7.04533 4.88964 -5.65785 6.30091C-5.65785 6.30091 -4.15153 3.51979 -4.15153 3.51979L-2.92029 -2.85459Z"></path><path fill="white" transform="matrix(0.573396 0 0 0.573396 43.9786 35.4689)" d="M20.7139 3.26606C20.5931 3.16771 20.4606 3.08328 20.3103 3.01878C20.189 2.92192 20.0522 2.84124 19.8983 2.78091C19.1195 2.30292 18.2764 1.9319 17.4134 1.58434C17.6041 1.62247 17.7779 1.67918 17.9359 1.75285C18.109 1.79097 18.2666 1.84535 18.4064 1.91852C18.5397 1.94533 18.655 1.98783 18.7583 2.04806C18.8895 2.0758 19.0058 2.11942 19.1044 2.18263C19.2755 2.22973 19.4295 2.29323 19.5685 2.37234C19.8486 2.47036 20.1087 2.58689 20.3502 2.72526C20.5036 2.7742 20.6373 2.83997 20.7554 2.92304C22.3255 3.67852 23.7829 4.64408 25.0512 5.82013C24.5219 4.91002 23.8683 4.10102 23.1197 3.38308C22.4463 2.67903 21.6929 2.05939 20.8822 1.51632C20.8871 1.49455 20.8768 1.48727 20.8516 1.49567C20.7348 1.38651 20.6014 1.29543 20.4534 1.22139C20.4623 1.20351 20.4564 1.19764 20.4358 1.21149C20.3197 1.11003 20.19 1.02553 20.044 0.957422C20.0432 0.933888 20.0293 0.922999 19.998 0.930128C19.8792 0.827893 19.743 0.744879 19.5931 0.680662C19.5824 0.650197 19.5589 0.63648 19.519 0.638095C19.2594 0.458007 18.9811 0.300604 18.6866 0.165605C18.5416 0.0627329 18.3819 -0.0211296 18.2034 -0.0883172C18.1673 -0.13165 18.1162 -0.157177 18.0495 -0.166594C17.8048 -0.313094 17.543 -0.439101 17.2695 -0.54426C16.3479 -0.996866 15.4108 -1.36845 14.5025 -1.66679C14.3705 -1.73601 14.2247 -1.78642 14.0624 -1.81967C13.9349 -1.88436 13.789 -1.93294 13.6311 -1.96272C10.5842 -2.96708 8.16173 -3.2855 8.16173 -3.2855L13.0313 4.25349C13.0313 4.25349 12.391 3.26924 13.0314 4.25346C13.6718 5.23768 15.547 8.23632 15.5316 8.25165C15.9608 7.1169 16.4739 6.30613 17.034 5.74998C17.1152 5.66875 17.1827 5.60355 17.2343 5.56274C17.313 5.4919 17.3743 5.43908 17.4216 5.40689C17.5048 5.33846 17.572 5.28755 17.6286 5.25578C17.6845 5.20934 17.7305 5.18148 17.7589 5.17171C17.8064 5.13255 17.8414 5.11232 17.8612 5.10779C17.925 5.06311 17.9718 5.03822 18.0022 5.03043C18.0392 5.00131 18.0602 4.99091 18.0686 4.99557C18.1217 4.95888 18.1613 4.94057 18.1879 4.93879C18.2417 4.90189 18.2813 4.88648 18.304 4.88477C18.357 4.85197 18.3979 4.83592 18.4234 4.83689C18.4653 4.80975 18.4958 4.79999 18.5105 4.80684C18.5833 4.76839 18.6417 4.74717 18.6867 4.74709C18.7099 4.72787 18.7177 4.72688 18.7124 4.73839C18.7975 4.70234 18.8681 4.6824 18.9243 4.68267C19.0048 4.65002 19.074 4.63658 19.1286 4.64124C19.1538 4.62287 19.1661 4.62053 19.1659 4.63431C19.2501 4.60703 19.3172 4.59458 19.3727 4.60503C19.4575 4.57945 19.5266 4.57181 19.5845 4.58368C19.6147 4.56651 19.6323 4.56644 19.6338 4.58177C19.7125 4.56007 19.7762 4.55781 19.8262 4.57258C19.9183 4.55428 19.9919 4.55519 20.0537 4.57385C20.168 4.56113 20.2682 4.56686 20.3514 4.59125C20.421 4.57697 20.4729 4.58475 20.5093 4.60758C20.5246 4.59225 20.5266 4.59027 20.5113 4.6056C21.8799 4.74852 23.2042 5.39517 24.1685 6.01635C24.1838 6.00102 24.123 5.94014 24.1076 5.95547C23.102 4.91914 21.9621 4.01532 20.7168 3.26493C20.7321 3.24959 20.7293 3.25072 20.7139 3.26606ZM8.15514 -3.27691L7.94133 1.15702C7.94133 1.15702 9.02796 5.25853 9.40232 6.69692C12.4223 4.50942 15.6955 5.34727 17.2773 5.95847C17.2668 5.97657 14.8101 2.74481 14.8101 2.74481L8.15514 -3.27691ZM8.15101 -3.26691C6.99287 -1.71456 5.72841 -1.57673 4.73274 -1.84352C3.68335 -2.12471 2.93717 -2.85315 2.93717 -2.85315C2.93717 -2.85315 4.22862 4.09319 4.05453 3.4907C4.4564 4.2299 5.13021 5.45877 5.61966 6.3819C6.72541 4.79751 8.07316 4.64596 9.21913 4.95303C9.88552 5.13159 10.48 5.46304 10.9208 5.76108C10.3711 4.32001 9.09207 1.07127 9.09207 1.07127C9.09207 1.07127 8.16994 -3.26184 8.15101 -3.26691Z"></path><path fill="#ED1C24" transform="matrix(0.573396 0 0 0.573396 43.9777 34.0032)" d="M1.46425 -0.566396C1.14355 -0.566396 0.88465 -0.306296 0.88465 0.0122038C0.88465 0.330704 1.14425 0.592904 1.46425 0.592904C1.78435 0.592904 2.04185 0.332804 2.04185 0.0122038C2.04185 -0.308396 1.78225 -0.566396 1.46425 -0.566396ZM-1.46435 -0.592896C-1.78505 -0.592896 -2.04185 -0.332796 -2.04185 -0.0141962C-2.04185 0.304304 -1.78505 0.566504 -1.46435 0.566504C-1.14365 0.566504 -0.88685 0.306404 -0.88685 -0.0141962C-0.88685 -0.334896 -1.14645 -0.592896 -1.46435 -0.592896ZM1.46425 -0.566396C1.14355 -0.566396 0.88465 -0.306296 0.88465 0.0122038C0.88465 0.330704 1.14425 0.592904 1.46425 0.592904C1.78435 0.592904 2.04185 0.332804 2.04185 0.0122038C2.04185 -0.308396 1.78225 -0.566396 1.46425 -0.566396Z"></path><path fill="white" transform="matrix(0.955659 0 0 0.955659 43.9975 50.2037)" d="M23.1345 -22.2598C24.1711 -20.7366 25.0563 -19.1134 25.7796 -17.4004C27.2379 -13.9453 27.9779 -10.2746 27.9779 -6.48985C27.9779 -2.70515 27.2387 0.965754 25.7796 4.41985C24.3704 7.75765 22.353 10.7559 19.7832 13.3304C19.525 13.5895 19.2612 13.8409 18.9949 14.088C18.9949 14.088 18.9949 15.5762 18.9949 15.5762C18.9949 15.5762 17.2581 15.5762 17.2581 15.5762C15.3137 17.1069 13.1819 18.3663 10.8899 19.338C7.4414 20.7994 3.7775 21.5407 -9.61853e-05 21.5407C-3.7776 21.5407 -7.4414 20.8002 -10.89 19.338C-13.1883 18.3639 -15.3256 17.0994 -17.2741 15.5638C-17.2741 15.5638 -19.0296 15.5638 -19.0296 15.5638C-19.0296 15.5638 -19.0296 14.0557 -19.0296 14.0557C-19.2843 13.8186 -19.5363 13.5783 -19.7835 13.3304C-22.3532 10.7559 -24.3704 7.75845 -25.7796 4.41985C-27.238 0.964954 -27.9779 -2.70595 -27.9779 -6.48985C-27.9779 -10.2739 -27.2386 -13.9453 -25.7796 -17.4004C-25.0569 -19.1113 -24.174 -20.7325 -23.1397 -22.2535C-23.5131 -22.4719 -23.9067 -22.6534 -24.294 -22.805C-27.4198 -18.1418 -29.2441 -12.5293 -29.2441 -6.48985C-29.2441 9.69175 -16.1509 22.81 -9.61853e-05 22.81C16.151 22.81 29.2441 9.69175 29.2441 -6.48985C29.2441 -12.5314 27.4184 -18.146 24.2903 -22.8099C23.8324 -22.6304 23.4498 -22.442 23.1345 -22.259C23.1345 -22.259 23.1345 -22.2598 23.1345 -22.2598Z"></path><path fill="white" transform="matrix(0.955659 0 0 0.955659 44.0173 16.9285)" d="M-0.155496 0.2994C-0.110396 0.2994 -0.0659962 0.2987 -0.0207962 0.2987C0.0382038 0.2987 0.0965038 0.2994 0.155504 0.3001C0.155504 0.3001 3.8147e-06 -0.3001 3.8147e-06 -0.3001C3.8147e-06 -0.3001 -0.155496 0.2994 -0.155496 0.2994Z"></path><path fill="white" transform="matrix(0.955659 0 0 0.955659 33.1116 21.1015)" d="M6.65525 -4.78595C6.65525 -4.78595 7.23345 -3.76155 7.23345 -3.76155C8.38575 -3.93325 9.55325 -4.03275 10.7327 -4.05985C10.7327 -4.05985 10.9229 -4.79425 10.9229 -4.79425C10.9229 -4.79425 11.0631 -5.33465 11.0631 -5.33465C2.17305 -5.23585 -5.76395 -1.16385 -11.063 5.19345C-10.5556 5.21645 -10.0364 5.26375 -9.51165 5.33465C-9.14995 4.92775 -8.77725 4.52925 -8.38985 4.14195C-5.82015 1.56725 -2.82835 -0.453848 0.503654 -1.86565C2.48955 -2.70715 4.54705 -3.30945 6.65585 -3.66905C6.65585 -3.66905 6.65585 -4.78595 6.65585 -4.78595L6.65525 -4.78595Z"></path><path fill="white" transform="matrix(0.955659 0 0 0.955659 54.9033 21.0996)" d="M-11.0426 -5.3322L-10.9031 -4.7925C-10.9031 -4.7925 -10.7128 -4.0574 -10.7128 -4.0574C-9.56125 -4.0296 -8.42145 -3.9315 -7.29485 -3.766C-7.29485 -3.766 -6.72075 -4.7842 -6.72075 -4.7842C-6.72075 -4.7842 -6.72075 -3.6749 -6.72075 -3.6749C-4.59605 -3.316 -2.52405 -2.7116 -0.52415 -1.8639C2.80715 -0.452098 5.79985 1.569 8.36955 4.1437C8.75535 4.5304 9.12755 4.9275 9.48825 5.3329C10.0152 5.2627 10.5345 5.2161 11.0426 5.1945C5.75195 -1.1524 -2.16935 -5.2223 -11.0426 -5.3329C-11.0426 -5.3329 -11.0426 -5.3322 -11.0426 -5.3322Z"></path><path fill="white" transform="translate(24.1165 26.0853)" d="M-5.88817e-08 0L-1.36286 1.60287L-2.30047 2.92987C-2.30047 2.92987 -3.38666 2.55432 -3.37641 2.41675C-3.36617 2.27918 -2.45418 0.984478 -2.45418 0.984478L-1.25014 -0.395309L-5.88817e-08 0ZM41.2042 -0.192734L42.2292 1.15557L43.1558 2.41675L42.0486 2.92981L40.9114 1.38423L39.7921 0.0543916L41.2042 -0.192734Z"></path></svg>