<svg xmlns="http://www.w3.org/2000/svg" xmlns:xlink="http://www.w3.org/1999/xlink" viewBox="0 0 88 88" width="88" height="88" class="w-full h-full"><path fill="white" transform="matrix(0.989101 0 0 0.989101 18.5778 40.6869)" d="M-0.45525 5.73315C-1.04565 3.33605 -0.55485 1.00295 -0.41255 -1.32305C-0.22765 -4.28205 0.0426499 -7.24115 0.25605 -10.2001C0.29165 -10.755 0.46235 -10.9612 1.04565 -10.755C1.04565 -10.755 1.04565 10.7478 1.04565 10.7478C0.50505 10.9612 0.28455 10.7763 0.21335 10.2357C0.01425 8.75625 -0.22055 7.27665 -0.44815 5.74025C-0.44815 5.74025 -0.45525 5.73315 -0.45525 5.73315Z"></path><path fill="white" transform="matrix(0.989101 0 0 0.989101 22.6431 31.9536)" d="M1.1025 12.2594C0.9816 12.4372 0.8536 12.6506 0.7469 12.6435C0.1067 12.5937 -0.5264 12.4941 -1.0527 12.423C-1.0527 10.5665 -1.1025 8.75265 -1.0456 6.94595C-0.8465 0.73625 -0.6188 -5.47355 -0.3983 -11.6761C-0.3983 -11.7899 -0.4268 -11.9179 -0.3841 -12.0175C-0.2916 -12.238 -0.1636 -12.4443 -0.0498 -12.6506C0.0569 -12.4372 0.249 -12.2309 0.2561 -12.0104C0.5477 -3.94415 0.8251 4.12915 1.1025 12.2594Z"></path><path fill="white" transform="matrix(0.989101 0 0 0.989101 22.5241 54.5479)" d="M-0.68285 -2.65325C-0.73975 -3.46405 -0.78955 -4.20385 -0.83935 -4.95075C-0.78245 -4.97205 -0.72555 -4.99345 -0.66865 -5.01475C-0.51215 -4.71605 -0.39125 -4.38875 -0.19915 -4.11135C0.70415 -2.78835 0.83935 -1.33725 0.65435 0.220446C0.49075 1.61465 0.49785 3.02305 0.39115 4.42435C0.37695 4.63065 0.15645 4.81555 0.03555 5.01475C-0.07115 4.82265 -0.24895 4.63775 -0.26325 4.43855C-0.41975 2.09835 -0.54775 -0.248954 -0.68285 -2.66035C-0.68285 -2.66035 -0.68285 -2.65325 -0.68285 -2.65325Z"></path><path fill="white" transform="matrix(0.989101 0 0 0.989101 26.4728 29.853)" d="M1.0883 12.9316C1.0883 12.9316 1.0883 15.8551 1.0883 15.8551C0.440998 15.663 -0.199202 15.5065 -0.810902 15.2504C-0.967402 15.1864 -1.0883 14.8237 -1.0812 14.6032C-1.0172 11.4734 -0.931902 8.3436 -0.846502 5.2139C-0.661602 -1.6218 -0.483702 -8.4504 -0.298802 -15.2861C-0.298802 -15.3785 -0.284602 -15.471 -0.270302 -15.5848C0.348498 -15.8551 0.348498 -15.4283 0.362698 -15.03C0.426698 -12.704 0.483698 -10.3851 0.540598 -8.0591C0.725498 -1.0883 0.903298 5.8825 1.0883 12.9245C1.0883 12.9245 1.0883 12.9316 1.0883 12.9316Z"></path><path fill="white" transform="matrix(0.989101 0 0 0.989101 26.4465 60.953)" d="M0.67215 -1.39065C0.57975 0.58685 0.49435 2.49315 0.40905 4.39945C0.40905 4.53455 0.43745 4.69815 0.37345 4.80485C0.28805 4.96135 0.13875 5.07515 0.01775 5.21035C-0.08185 5.06805 -0.26675 4.93295 -0.27385 4.78355C-0.35925 3.58855 -0.41615 2.39355 -0.47305 1.19855C-0.57265 -0.92825 -0.67215 -3.06225 -0.77175 -5.21035C0.32365 -4.69825 0.77175 -3.98695 0.72905 -2.90575C0.70775 -2.42205 0.69355 -1.93835 0.66505 -1.39065C0.66505 -1.39065 0.67215 -1.39065 0.67215 -1.39065Z"></path><path fill="white" transform="matrix(0.989101 0 0 0.989101 30.3674 29.2335)" d="M0.61175 -3.30045C0.76105 3.94065 0.91045 11.1177 1.05985 18.4015C0.34855 18.0245 -0.29875 17.7329 -0.88205 17.3488C-1.03855 17.2492 -1.05985 16.858 -1.05275 16.609C-0.98165 12.4621 -0.88915 8.32235 -0.80375 4.18245C-0.67575 -2.03435 -0.55485 -8.24405 -0.42685 -14.461C-0.40545 -15.592 -0.38415 -16.7157 -0.32725 -17.8396C-0.32015 -18.0317 -0.12805 -18.2096 -0.02135 -18.4016C0.09245 -18.2238 0.29875 -18.0459 0.29875 -17.861C0.38405 -14.4112 0.44815 -10.9542 0.51925 -7.50435C0.54765 -6.12435 0.58325 -4.74445 0.61885 -3.29335C0.61885 -3.29335 0.61175 -3.30045 0.61175 -3.30045Z"></path><path fill="white" transform="matrix(0.989101 0 0 0.989101 30.3992 65.2489)" d="M-0.793102 -3.0658C-0.793102 -4.2536 -0.793102 -5.3704 -0.793102 -6.5298C-0.352102 -6.2951 0.159998 -6.0533 0.629498 -5.7474C0.750398 -5.6692 0.793098 -5.3917 0.785998 -5.2068C0.629498 -1.4867 0.472998 2.2335 0.288098 5.9465C0.280998 6.1457 0.0461981 6.3377 -0.0747019 6.5298C-0.174302 6.3377 -0.359202 6.1457 -0.366302 5.9536C-0.515702 2.9733 -0.643702 -0.0142 -0.778902 -3.0658C-0.778902 -3.0658 -0.793102 -3.0658 -0.793102 -3.0658Z"></path><path fill="white" transform="matrix(0.989101 0 0 0.989101 34.1642 29.9396)" d="M1.03495 9.79824C1.03495 9.79824 1.03495 20.9089 1.03495 20.9089C0.44455 20.3612 -0.25255 19.7495 -0.89985 19.0808C-1.03495 18.9386 -1.00655 18.6042 -0.99945 18.3553C-0.793149 7.69994 -0.57265 -2.95546 -0.38055 -13.611C-0.33785 -16.001 -0.38055 -18.391 -0.38055 -20.8378C-0.03205 -20.8663 0.14585 -20.8876 0.38765 -20.9089C0.601049 -10.6519 0.814449 -0.46596 1.02785 9.79824C1.02785 9.79824 1.03495 9.79824 1.03495 9.79824Z"></path><path fill="white" transform="matrix(0.989101 0 0 0.989101 34.2427 68.3906)" d="M-0.665054 -1.28395C-0.750454 -3.52455 -0.835754 -5.70115 -0.921154 -7.94175C-0.352154 -7.77105 0.160046 -7.65725 0.643746 -7.45805C0.785946 -7.40115 0.921146 -7.11665 0.914046 -6.94595C0.807346 -3.77345 0.672146 -0.60815 0.544146 2.56425C0.473046 4.26425 0.394746 5.96435 0.316546 7.67145C-0.316554 7.94175 -0.330754 7.53635 -0.344954 7.12375C-0.451654 4.34255 -0.558354 1.56135 -0.665054 -1.28395Z"></path><path fill="white" transform="matrix(0.989101 0 0 0.989101 38.1528 32.7619)" d="M0.48725 -13.2268C0.71485 -0.44458 0.93535 12.2736 1.16295 24.9918C1.12745 25.0061 1.09895 25.0132 1.06335 25.0274C0.87845 24.6006 0.70775 24.1667 0.51565 23.747C0.17425 23.0215 -0.10315 22.2462 -0.54415 21.5847C-1.06345 20.8093 -1.16295 20.0127 -1.14875 19.1164C-0.871351 4.64842 -0.615249 -9.81958 -0.35925 -24.2948C-0.35925 -24.6575 -0.38765 -25.0274 0.25965 -24.8567C0.33785 -21.0157 0.40895 -17.1604 0.48725 -13.2339C0.48725 -13.2339 0.48725 -13.2268 0.48725 -13.2268Z"></path><path fill="white" transform="matrix(0.989101 0 0 0.989101 38.1106 70.4025)" d="M-0.594004 1.51865C-0.736204 -2.01655 -0.871404 -5.48065 -1.0136 -9.00875C-0.316604 -8.93045 0.309396 -8.85225 1.0136 -8.77395C0.778896 -2.87015 0.544096 2.99815 0.309396 8.86645C-0.302304 9.00875 -0.302304 9.00875 -0.330804 8.41125C-0.423304 6.13505 -0.508604 3.85885 -0.601104 1.51865C-0.601104 1.51865 -0.594004 1.51865 -0.594004 1.51865Z"></path><path fill="white" transform="matrix(0.989101 0 0 0.989101 41.8184 44.0229)" d="M-0.7148 25.1234C-1.3195 14.6316 -0.7148 4.2038 -0.6153 -6.21689C-0.5441 -13.9488 -0.3876 -21.6878 -0.2738 -29.4198C-0.2383 -31.8169 -0.1956 -34.2069 -0.1671 -36.604C-0.1671 -37.0023 -0.1458 -37.3224 0.5157 -37.0948C0.5157 -36.2697 0.5015 -35.4019 0.5157 -34.5341C0.6722 -24.0565 0.8216 -13.586 0.9852 -3.10839C1.0919 3.8411 1.2839 10.7977 1.3053 17.7472C1.3195 21.197 1.035 24.6469 0.8785 28.0967C0.7576 30.8352 0.6295 33.5667 0.5086 36.3052C0.5015 36.5115 0.53 36.732 0.4588 36.924C0.4019 37.0805 0.2312 37.1943 0.1103 37.3224C0.0178 37.1872 -0.1529 37.0592 -0.16 36.924C-0.2312 35.9851 -0.2667 35.0391 -0.3094 34.1001C-0.4517 31.134 -0.5868 28.1678 -0.7291 25.1305C-0.7291 25.1305 -0.7148 25.1234 -0.7148 25.1234Z"></path><path fill="white" transform="matrix(0.989101 0 0 0.989101 45.7771 44.023)" d="M-0.8749 3.70593C-0.6615 -9.93697 -0.441 -23.5159 -0.2276 -37.0948C0.3485 -37.3295 0.4126 -37.045 0.4197 -36.604C0.4766 -32.6918 0.5477 -28.7796 0.6117 -24.8674C0.8322 -10.8048 1.1025 3.25773 1.2235 17.3203C1.259 21.894 0.8891 26.4749 0.6971 31.0486C0.6188 32.9336 0.5335 34.8185 0.4268 36.7035C0.4126 36.9169 0.2063 37.1232 0.0925 37.3295C-0.0142 37.1161 -0.2134 36.9098 -0.2276 36.6964C-0.4054 33.2465 -0.505 29.7967 -0.7398 26.3539C-1.259 18.8354 -0.9958 11.3098 -0.8749 3.72013C-0.8749 3.72013 -0.8749 3.70593 -0.8749 3.70593Z"></path><path fill="white" transform="matrix(0.989101 0 0 0.989101 49.7006 32.6599)" d="M-0.8429 7.15574C-0.658 -3.51386 -0.473 -14.1195 -0.2881 -24.7251C0.4232 -24.974 0.3734 -24.5188 0.3806 -24.1276C0.4446 -20.4004 0.4944 -16.6731 0.5655 -12.9387C0.7576 -2.16946 0.9425 8.60684 1.1488 19.376C1.163 20.1087 1.035 20.7418 0.6509 21.389C0.00359994 22.4845 -0.5086 23.6581 -1.163 24.974C-1.0563 18.9421 -0.9496 13.0809 -0.8429 7.15574Z"></path><path fill="white" transform="matrix(0.989101 0 0 0.989101 49.745 70.4161)" d="M0.377 7.42964C0.3628 7.82084 0.3343 8.14094 0.3485 8.46104C0.3628 8.90204 0.1849 9.05144 -0.3272 8.90204C-0.5619 3.05504 -0.7896 -2.82746 -1.0243 -8.79536C-0.3485 -8.88066 0.2916 -8.95896 1.0243 -9.05146C0.8038 -3.52456 0.5904 1.91694 0.377 7.42964Z"></path><path fill="white" transform="matrix(0.989101 0 0 0.989101 53.6584 29.9276)" d="M-1.04915 14.5142C-0.82155 2.69231 -0.59395 -9.05858 -0.36635 -20.852C-0.16715 -20.8663 0.01065 -20.8734 0.23115 -20.8876C0.25255 -20.6742 0.28095 -20.4964 0.28095 -20.3257C0.39475 -14.621 0.50145 -8.91628 0.61525 -3.21158C0.75755 4.01532 0.91405 11.2351 1.04915 18.462C1.04915 18.6896 0.97095 18.9813 0.82155 19.1306C0.23115 19.7353 -0.40905 20.2972 -1.04205 20.8876C-1.04205 18.775 -1.04205 16.6766 -1.04205 14.5071C-1.04205 14.5071 -1.04915 14.5142 -1.04915 14.5142Z"></path><path fill="white" transform="matrix(0.989101 0 0 0.989101 53.6313 68.3447)" d="M-0.7504 -2.9164C-0.8073 -4.2465 -0.8429 -5.5127 -0.9069 -6.7788C-0.9283 -7.2056 -0.8642 -7.4688 -0.3734 -7.547C0.0249 -7.611 0.409 -7.7817 0.9283 -7.9453C0.7149 -2.6745 0.5086 2.518 0.3023 7.7106C-0.281 7.9453 -0.345 7.6537 -0.3592 7.2127C-0.4801 3.8553 -0.6082 0.505 -0.7433 -2.9235C-0.7433 -2.9235 -0.7504 -2.9164 -0.7504 -2.9164Z"></path><path fill="white" transform="matrix(0.989101 0 0 0.989101 57.5187 29.1255)" d="M0.68995 1.4831C0.80375 6.633 0.91765 11.7188 1.04565 16.8118C1.05275 17.1888 0.96735 17.4022 0.62595 17.5658C0.0711499 17.829 -0.46235 18.1348 -1.03135 18.4336C-1.03135 17.2884 -1.05275 16.193 -1.03135 15.1047C-0.810849 4.1932 -0.57615 -6.7183 -0.35565 -17.6298C-0.34855 -17.9926 -0.43385 -18.4336 0.27745 -18.2273C0.41255 -11.6904 0.54775 -5.1392 0.68995 1.476C0.68995 1.476 0.68995 1.4831 0.68995 1.4831Z"></path><path fill="white" transform="matrix(0.989101 0 0 0.989101 57.5155 65.1725)" d="M0.4233 3.24364C0.3806 4.22524 0.3521 5.14994 0.281 6.06034C0.2668 6.25244 0.0676 6.42314 -0.0462 6.60094C-0.1529 6.40894 -0.3378 6.21684 -0.345 6.01774C-0.4872 3.19384 -0.6081 0.369942 -0.7291 -2.45396C-0.7646 -3.32886 -0.7931 -4.20376 -0.8571 -5.07156C-0.8856 -5.49126 -0.7931 -5.75446 -0.3734 -5.92516C0.0249 -6.08166 0.3877 -6.32346 0.8856 -6.60096C0.7291 -3.27906 0.5797 -0.0497575 0.4233 3.23654C0.4233 3.23654 0.4233 3.24364 0.4233 3.24364Z"></path><path fill="white" transform="matrix(0.989101 0 0 0.989101 61.3439 29.9536)" d="M0.8571 4.6093C0.9496 7.988 1.0421 11.2956 1.1132 14.6103C1.1132 14.8024 0.9567 15.1011 0.8002 15.1651C0.2027 15.3928 -0.4232 15.5421 -1.1132 15.7484C-1.1132 15.5208 -1.1132 15.3287 -1.1132 15.1367C-0.8642 5.8683 -0.6082 -3.4 -0.3592 -12.6613C-0.3379 -13.4437 -0.345 -14.2262 -0.2952 -15.0086C-0.281 -15.2789 -0.5015 -15.7484 0.0391 -15.7199C0.1529 -15.7199 0.3308 -15.2789 0.3379 -15.0371C0.4303 -11.9571 0.5015 -8.8771 0.5797 -5.79C0.6651 -2.3402 0.7647 1.1097 0.8571 4.6235C0.8571 4.6235 0.8571 4.6093 0.8571 4.6093Z"></path><path fill="white" transform="matrix(0.989101 0 0 0.989101 61.3299 60.8909)" d="M-0.675746 -3.10485C-0.832246 -3.75935 -0.547646 -4.15765 -0.113746 -4.52045C0.177854 -4.76225 0.419654 -5.06815 0.832254 -5.27435C0.789554 -4.46355 0.746854 -3.65265 0.711354 -2.84175C0.597554 -0.337954 0.497954 2.16585 0.362754 4.67685C0.348554 4.88305 0.128054 5.07515 0.00715381 5.27435C-0.0924462 5.07515 -0.270246 4.89025 -0.284446 4.68395C-0.426746 2.10895 -0.547646 -0.465954 -0.675746 -3.09775C-0.675746 -3.09775 -0.675746 -3.10485 -0.675746 -3.10485Z"></path><path fill="white" transform="matrix(0.989101 0 0 0.989101 65.2283 31.9747)" d="M-0.6046 -4.3994C-0.5192 -6.8321 -0.4339 -9.2008 -0.3414 -11.5694C-0.3343 -11.797 -0.3627 -12.0389 -0.2987 -12.2523C-0.256 -12.4088 -0.0924 -12.5368 0.0214 -12.672C0.1281 -12.5297 0.3201 -12.3946 0.3343 -12.2452C0.3984 -11.2565 0.4197 -10.2677 0.4553 -9.279C0.6971 -2.3153 0.939 4.6484 1.1808 11.6121C1.1879 11.8611 1.1808 12.11 1.1808 12.3946C0.4055 12.487 -0.3414 12.5724 -1.1879 12.672C-0.9887 6.9602 -0.7966 1.3195 -0.5975 -4.3923C-0.5975 -4.3923 -0.6046 -4.3994 -0.6046 -4.3994Z"></path><path fill="white" transform="matrix(0.989101 0 0 0.989101 65.338 54.4106)" d="M-0.621208 1.2626C-0.628308 1.1488 -0.628308 1.1061 -0.635408 1.0563C-0.787208 -1.1345 -0.313008 -3.2187 0.787192 -5.1961C0.751592 -4.5986 0.723192 -4.0011 0.687592 -3.4036C0.538192 -0.7575 0.403092 1.8814 0.239492 4.5275C0.225292 4.7409 0.0545924 5.1108 -0.0877076 5.1321C-0.578508 5.1961 -0.436308 4.7622 -0.450508 4.499C-0.521608 3.4463 -0.564308 2.3864 -0.621208 1.2626Z"></path><path fill="white" transform="matrix(0.989101 0 0 0.989101 69.1736 40.7841)" d="M0.0177424 -8.5748C0.330742 -4.6626 0.693542 -0.8145 0.899842 3.0408C0.963842 4.2785 0.629542 5.5446 0.451642 6.7894C0.295242 7.9062 0.0818424 9.0087 -0.0675576 10.1255C-0.145858 10.7016 -0.394758 10.8795 -0.963858 10.6519C-0.963858 10.6519 -0.963858 -10.8795 -0.963858 -10.8795C-0.963858 -10.8795 -0.195558 -10.8795 -0.195558 -10.8795C-0.131558 -10.1326 -0.0604577 -9.3857 0.0106424 -8.5748C0.0106424 -8.5748 0.0177424 -8.5748 0.0177424 -8.5748Z"></path></svg>