<svg xmlns="http://www.w3.org/2000/svg" xmlns:xlink="http://www.w3.org/1999/xlink" viewBox="0 0 88 88" width="88" height="88" class="w-full h-full"><path fill="white" transform="matrix(0.904107 0 0 0.904107 31.9813 43.8034)" d="M-18.969 29.2054C-14.639 21.6747 -10.335 14.1838 -6.02895 6.6941C-3.50985 2.3125 -1.00015 -2.0746 1.54725 -6.4396C1.89835 -7.0413 1.81725 -7.485 1.49685 -8.0365C-1.47575 -13.1538 -4.43025 -18.2817 -7.38905 -23.407C-8.66325 -25.6144 -9.93635 -27.8224 -11.2066 -30.032C-11.3113 -30.2141 -11.3907 -30.4108 -11.4767 -30.5897C-11.2549 -30.8466 -11.001 -30.7628 -10.7797 -30.763C-5.35655 -30.7684 0.06675 -30.7635 5.48995 -30.7737C5.94155 -30.7745 6.23515 -30.6658 6.48065 -30.2385C10.7843 -22.7467 15.1035 -15.264 19.4308 -7.7858C19.6593 -7.3909 19.7065 -7.0852 19.4632 -6.6632C13.5204 3.6476 7.59205 13.9666 1.66135 24.2843C0.52035 26.2692 -0.62905 28.2493 -1.75255 30.244C-1.98325 30.6536 -2.26065 30.8034 -2.73015 30.8021C-8.17495 30.7878 -13.6197 30.7941 -19.0646 30.791C-19.2719 30.7908 -19.4974 30.8466 -19.7066 30.6584C-19.6178 30.1203 -19.2184 29.7246 -18.969 29.2054Z"></path><path fill="white" transform="matrix(0.904107 0 0 0.904107 59.5618 37.2814)" d="M11.8031 -6.73125C13.0143 -4.63155 14.1925 -2.56755 15.3935 -0.51695C15.6173 -0.13495 15.6165 0.15295 15.3888 0.54635C11.0822 7.98825 6.78844 15.4377 2.50824 22.8948C2.21984 23.3973 1.91034 23.6225 1.29814 23.6194C-4.06136 23.5924 -9.42106 23.6033 -14.7807 23.6031C-15.0142 23.6031 -15.2477 23.6031 -15.4636 23.6031C-15.6174 23.2129 -15.3776 23.0009 -15.2476 22.7754C-10.985 15.383 -6.71996 7.99205 -2.43706 0.61145C-2.16536 0.14315 -2.22416 -0.20415 -2.47436 -0.63685C-6.42236 -7.46285 -10.3597 -14.2951 -14.2975 -21.1271C-14.7345 -21.8853 -15.1596 -22.6504 -15.5855 -23.4037C-15.2984 -23.6225 -15.0525 -23.5502 -14.8245 -23.5504C-9.44326 -23.5555 -4.06196 -23.5459 1.31914 -23.5688C1.89514 -23.5712 2.20664 -23.3836 2.49024 -22.8885C5.57264 -17.5084 8.67864 -12.1419 11.8031 -6.73125Z"></path></svg>