<svg xmlns="http://www.w3.org/2000/svg" xmlns:xlink="http://www.w3.org/1999/xlink" viewBox="0 0 88 88" width="88" height="88" class="w-full h-full"><path fill="white" transform="translate(57.5 52.5)" d="M-5.34139 -5.84947C-5.34139 -5.84947 -2.37959 -2.09087 -2.37959 -2.09087C-2.17669 -1.82777 -1.75569 -1.96307 -1.74819 -2.30137C-1.74819 -2.30137 -1.58279 -8.20997 -1.58279 -8.20997C-1.56769 -9.13457 -1.44749 -10.0969 -1.19939 -10.9839C-1.19939 -10.9839 -0.515294 -13.6826 -0.515294 -13.6826L-1.07909 1.05143L0.0635056 -0.0160742L0.890406 -21.1398C0.890406 -21.1398 -3.95069 -14.9831 -3.95069 -14.9831C-4.90539 -13.8255 -5.22869 -12.525 -5.23619 -11.0215C-5.23619 -11.0215 -5.34139 -5.84947 -5.34139 -5.84947Z"></path><path fill="white" transform="translate(64.5 55)" d="M-1.8617 -2.13338C-1.8617 -2.13338 -0.831701 -19.4384 -0.831701 -19.4384C-0.794201 -20.4532 -0.621301 -21.453 -0.328101 -22.4153C-0.328101 -22.4153 0.318399 -24.911 0.318399 -24.911L-1.3053 0.828419L-0.0274012 -0.23908L2.1075 -33.4282C2.1075 -33.4282 -3.2975 -27.076 -3.2975 -27.076C-4.3724 -25.8357 -4.7709 -24.4149 -4.816 -22.7686C-4.816 -22.7686 -5.485 -5.47108 -5.485 -5.47108C-5.485 -5.47108 -2.5758 -1.89288 -2.5758 -1.89288C-2.3427 -1.61468 -1.8917 -1.75758 -1.8691 -2.11838C-1.8691 -2.11838 -1.8617 -2.13338 -1.8617 -2.13338Z"></path><path fill="white" transform="translate(48 42.5)" d="M4.4081 -21.3484C4.5435 -22.7166 4.1451 -24.0772 3.2956 -25.1522C3.2956 -25.1522 0.672002 -28.4824 0.672002 -28.4824L-0.042098 0.128723L2.5213 -2.08138C2.5213 -2.08138 4.4081 -21.3484 4.4081 -21.3484Z"></path><path fill="white" transform="translate(40 42.5)" d="M-2.4163 -2.08888L0.147101 0.12122L-0.567098 -28.4824C-0.567098 -28.4824 -3.1906 -25.1522 -3.1906 -25.1522C-4.0325 -24.0772 -4.4385 -22.7166 -4.3032 -21.3484C-4.3032 -21.3484 -2.4163 -2.08138 -2.4163 -2.08138L-2.4163 -2.08888Z"></path><path fill="white" transform="translate(70.5 64)" d="M-0.64569 -46.3221C-1.77329 -45.1269 -2.44229 -43.5708 -2.55509 -41.932C-2.55509 -41.932 -4.61489 -12.0956 -4.61489 -12.0956C-4.61489 -12.0956 -1.55529 -8.11138 -1.55529 -8.11138C-1.33729 -7.82578 -0.87869 -7.96108 -0.84869 -8.32188C-0.84869 -8.32188 1.57951 -38.5642 1.57951 -38.5642C1.66221 -39.5716 1.87261 -40.5638 2.21091 -41.5185C2.21091 -41.5185 2.77471 -43.1273 2.77471 -43.1273L-0.70579 -1.27818L0.44431 -0.127977L5.09011 -52.4262L-0.63819 -46.3146C-0.63819 -46.3146 -0.64569 -46.3221 -0.64569 -46.3221Z"></path><path fill="white" transform="translate(44.0396 42.9479)" d="M24.7546 17.5868C24.7546 17.5868 24.7621 17.5868 24.7621 17.5868C24.9801 16.0683 24.5066 14.5348 23.4767 13.3996C23.4767 13.3996 21.9281 11.7007 21.9281 11.7007C21.9281 11.7007 19.515 13.9033 19.515 13.9033C18.861 14.4972 18.4551 15.3241 18.3874 16.2036C18.3874 16.2036 18.3574 16.5719 18.3574 16.5719L17.3801 16.0006C17.3801 16.0006 17.6808 13.7078 17.6808 13.7078C17.7936 12.8509 17.5305 11.9789 16.9742 11.3248C16.9742 11.3248 15.3955 9.46052 15.3955 9.46052C15.3955 9.46052 13.0576 11.6782 13.0576 11.6782C12.7569 11.9638 12.5765 12.3622 12.554 12.7832C12.554 12.7832 12.5765 13.9559 12.5765 13.9559L11.5992 13.5951C11.5992 13.5951 11.7346 11.8736 11.7346 11.8736C11.7947 11.1294 11.5617 10.3927 11.0956 9.81392C11.0956 9.81392 9.4568 7.79173 9.4568 7.79173C9.4568 7.79173 7.3444 9.97173 7.3444 9.97173C7.1415 10.1822 6.9986 10.4528 6.9535 10.746C6.9535 10.746 6.9385 11.6631 6.9385 11.6631C6.9385 11.6631 3.1723 7.46842 3.1723 7.46842C3.1122 7.40083 3.2024 7.31063 3.2701 7.36322C3.2701 7.36322 5.3298 9.09223 5.3298 9.09223C5.6079 9.32522 6.0289 9.22752 6.1717 8.89672C6.1717 8.89672 6.3897 8.39312 6.3897 8.39312C6.7506 7.33312 6.7581 6.19053 6.4123 5.12302C6.4123 5.12302 4.9164 0.296925 4.9164 0.296925L1.714 2.11613L3.2099 0.199225C3.2099 0.199225 3.7135 -30.5167 3.7135 -30.5167C3.7286 -31.3286 3.3903 -32.1104 2.7889 -32.6592C2.7889 -32.6592 0.0827 -35.1324 0.0827 -35.1324L0.0601 -35.2L0.0376 -35.1775L0.015 -35.2L-0.0076 -35.1324C-0.0076 -35.1324 -2.7138 -32.6592 -2.7138 -32.6592C-3.3152 -32.1104 -3.6459 -31.3361 -3.6384 -30.5167C-3.6384 -30.5167 -3.1347 0.199225 -3.1347 0.199225L-1.6388 2.11613L-4.8412 0.296925C-4.8412 0.296925 -6.3371 5.12302 -6.3371 5.12302C-6.6829 6.18302 -6.6754 7.33312 -6.3146 8.39312C-6.3146 8.39312 -6.0966 8.89672 -6.0966 8.89672C-5.9462 9.22752 -5.5253 9.32522 -5.2546 9.09223C-5.2546 9.09223 -3.1949 7.36322 -3.1949 7.36322C-3.1272 7.30312 -3.037 7.40083 -3.0972 7.46842C-3.0972 7.46842 -6.8634 11.6631 -6.8634 11.6631C-6.8634 11.6631 -6.8784 10.746 -6.8784 10.746C-6.9235 10.4528 -7.0663 10.1822 -7.2693 9.97173C-7.2693 9.97173 -9.3817 7.79173 -9.3817 7.79173C-9.3817 7.79173 -11.0204 9.81392 -11.0204 9.81392C-11.4865 10.3927 -11.7196 11.1294 -11.6594 11.8736C-11.6594 11.8736 -11.5241 13.5951 -11.5241 13.5951L-12.5014 13.9559C-12.5014 13.9559 -12.4788 12.7832 -12.4788 12.7832C-12.4938 12.3622 -12.6743 11.9713 -12.9825 11.6782C-12.9825 11.6782 -15.3204 9.46052 -15.3204 9.46052C-15.3204 9.46052 -16.899 11.3248 -16.899 11.3248C-17.4628 11.9864 -17.7184 12.8509 -17.6057 13.7078C-17.6057 13.7078 -17.3049 16.0006 -17.3049 16.0006L-18.2822 16.5719C-18.2822 16.5719 -18.3123 16.2036 -18.3123 16.2036C-18.3799 15.3241 -18.7784 14.4972 -19.4399 13.9033C-19.4399 13.9033 -21.853 11.7007 -21.853 11.7007C-21.853 11.7007 -23.4015 13.3996 -23.4015 13.3996C-24.4314 14.5348 -24.905 16.0683 -24.687 17.5793C-24.687 17.5793 -24.3562 19.9021 -24.3562 19.9021L-26.7092 22.1273C-26.7092 22.1273 -25.6868 29.1334 -25.6868 29.1334C-25.6868 29.1334 -23.0256 33.4409 -21.2516 32.2306C-20.5224 31.7344 -19.7631 31.103 -18.9061 30.4039C-17.5681 29.3063 -15.9894 28.0058 -13.8846 26.6527C-10.4266 24.4276 -5.5403 22.0596 -5.5403 22.0596C-5.5403 22.0596 -6.9611 23.6383 -6.9611 23.6383C-7.1039 29.8777 -0.7217 32.8921 -0.7217 32.8921C-0.7217 32.8921 -2.1274 32.9222 -2.1274 32.9222L-0.1203 35.0496L-0.0226 35.2L-7.10543e-15 35.1774L0.0225 35.2L0.1203 35.0496L2.1274 32.9222C2.1274 32.9222 0.7217 32.8921 0.7217 32.8921C0.7217 32.8921 7.1039 29.8777 6.9611 23.6383C6.9611 23.6383 5.5403 22.0596 5.5403 22.0596C5.5403 22.0596 10.4266 24.4351 13.8845 26.6527C15.9969 28.0058 17.5756 29.3139 18.9061 30.4114C19.7631 31.118 20.5224 31.742 21.2515 32.2381C23.0256 33.4484 25.6868 29.141 25.6868 29.141C25.6868 29.141 26.7092 22.1348 26.7092 22.1348L24.3562 19.9097L24.687 17.5868L24.7546 17.5868Z"></path><path fill="white" transform="translate(23.5 55)" d="M1.4315 0.822021L-0.1922 -24.8949C-0.1922 -24.8949 0.4542 -22.4141 0.4542 -22.4141C0.7474 -21.4444 0.9203 -20.4446 0.9579 -19.4373C0.9579 -19.4373 1.9878 -2.13228 1.9878 -2.13228C2.0103 -1.77148 2.4614 -1.62108 2.6944 -1.90678C2.6944 -1.90678 5.6036 -5.48508 5.6036 -5.48508C5.6036 -5.48508 4.9346 -22.7825 4.9346 -22.7825C4.8895 -24.4288 4.4911 -25.8496 3.4161 -27.0899C3.4161 -27.0899 -1.9889 -33.4421 -1.9889 -33.4421L0.146 -0.252977L1.424 0.814522L1.4315 0.822021Z"></path><path fill="white" transform="translate(17.5 64)" d="M-2.643 -43.1193C-2.643 -43.1193 -2.0792 -41.5181 -2.0792 -41.5181C-1.7409 -40.5634 -1.538 -39.5711 -1.4477 -38.5638C-1.4477 -38.5638 0.9803 -8.32148 0.9803 -8.32148C1.0104 -7.96068 1.469 -7.82528 1.687 -8.11098C1.687 -8.11098 4.7465 -12.0952 4.7465 -12.0952C4.7465 -12.0952 2.6868 -41.9316 2.6868 -41.9316C2.574 -43.5703 1.8975 -45.1189 0.7774 -46.3217C0.7774 -46.3217 -4.9508 -52.4333 -4.9508 -52.4333L-0.3051 -0.13508L0.845 -1.28528L-2.628 -43.1193L-2.643 -43.1193Z"></path><path fill="white" transform="translate(30.5 52.5)" d="M1.195 1.05062L0.6312 -13.6909C0.6312 -13.6909 1.3153 -10.9922 1.3153 -10.9922C1.5633 -10.1052 1.6836 -9.13538 1.6987 -8.21828C1.6987 -8.21828 1.8641 -2.30968 1.8641 -2.30968C1.8716 -1.97888 2.2925 -1.83608 2.4955 -2.09918C2.4955 -2.09918 5.4573 -5.85788 5.4573 -5.85788C5.4573 -5.85788 5.3521 -11.0298 5.3521 -11.0298C5.3521 -12.5257 5.0138 -13.8338 4.0666 -14.9914C4.0666 -14.9914 -0.7745 -21.1481 -0.7745 -21.1481L0.0524001 -0.0243788L1.195 1.04312L1.195 1.05062Z"></path></svg>