<svg xmlns="http://www.w3.org/2000/svg" xmlns:xlink="http://www.w3.org/1999/xlink" viewBox="0 0 88 88" width="88" height="88" class="w-full h-full"><path fill="white" transform="matrix(1.3796 0 0 1.3796 50.2923 61.4107)" d="M19.9589 -5.53385L11.4966 -7.73685L17.7507 -0.74665L5.1155 -2.99205L1.1068 -1.11205L-14.9017 13.9749L-13.1542 7.90625C-13.1542 7.90625 -19.9589 13.6096 -19.9589 13.6096C-18.0631 7.35555 -15.6854 1.24445 -13.6096 -4.95135C-13.6096 -4.95135 -15.9131 -9.56905 -15.9131 -9.56905L-12.0421 -5.62385L-11.8726 -5.08375C-11.8726 -5.08375 -16.6545 8.46225 -16.6545 8.46225C-14.9547 7.08015 -13.3872 5.54445 -11.8991 3.92925C-11.8991 3.92925 -8.5894 -6.21175 -8.5894 -6.21175C-8.4835 -6.85245 -11.7032 -10.4906 -11.502 -10.6706C-11.1313 -10.6706 -10.7818 -10.3316 -10.4958 -10.1145C-9.1931 -9.11895 -7.9857 -7.98575 -6.5718 -7.13845C-6.5718 -7.13845 -6.5241 -6.90545 -6.5241 -6.90545C-6.5241 -6.90545 -11.3219 7.91155 -11.3219 7.91155C-7.2126 4.36355 -3.3468 0.48715 0.688396 -3.16145C0.688396 -3.16145 5.3167 -4.96725 5.3167 -4.96725L12.2221 -3.67515C12.2221 -3.67515 7.2549 -10.2045 7.2549 -10.2045C8.0175 -10.5117 12.561 -8.81715 12.7729 -9.00775C12.7729 -9.00775 8.5417 -13.9749 8.5417 -13.9749L19.9483 -5.51795L19.9589 -5.53385Z"></path><path fill="white" transform="matrix(1.3796 0 0 1.3796 29.5256 41.252)" d="M-1.48211 -1.71446C-1.23321 -1.47616 0.0959907 0.244944 -0.0311093 0.430244C-3.65851 1.84414 -7.24361 3.34274 -10.6116 5.30744C-11.4271 6.83784 -11.7131 8.59064 -12.3644 10.1793C-12.4386 10.3541 -12.3856 10.603 -12.6345 10.5447C-14.0166 7.91814 -14.3026 4.97914 -13.7413 2.08774C-13.5612 1.90244 -11.9143 2.26784 -11.533 2.18834C-10.6222 1.99774 -7.93731 0.112544 -6.69821 -0.348256C-6.42811 -0.448856 -6.14211 -0.295256 -5.83501 -0.385256C-5.48021 -0.485856 -5.14661 -0.861856 -4.72821 -0.861856C-4.72821 -0.861856 -5.55431 -1.53436 -5.55431 -1.53436C-5.55431 -1.53436 -11.2153 1.57404 -11.2153 1.57404C-11.7819 1.82294 -12.5551 1.77004 -13.1217 1.55294C-13.2594 1.49994 -13.4977 1.58464 -13.3706 1.26164C-12.9681 0.239644 -10.5322 -2.19106 -9.56841 -2.84776C-7.00001 -4.61646 -3.65321 -3.76386 -1.47681 -1.70916C-1.47681 -1.70916 -1.48211 -1.71446 -1.48211 -1.71446Z"></path><path fill="white" transform="matrix(1.3796 0 0 1.3796 51.3853 28.5339)" d="M-6.95835 1.73695C-6.95835 1.73695 -0.153554 1.27095 -0.153554 1.27095C3.27795 -2.75365 7.09605 -6.48175 10.4481 -10.5752C10.5116 -10.6547 10.7976 -11.1154 10.8929 -10.8665C10.8929 -10.8665 2.82255 0.953248 2.82255 0.953248C2.69015 1.49865 4.31055 2.65835 4.63355 3.20385C4.63355 3.20385 -2.17115 2.83845 -2.17115 2.83845L0.217146 6.33355L-4.93015 5.23205L-3.64335 9.09255L-8.79595 8.72715C-8.79595 8.72715 -8.06515 11.1153 -8.06515 11.1153C-8.97065 11.0836 -9.99275 10.3581 -10.6282 9.72265C-10.7818 9.56905 -10.893 9.55845 -10.8242 9.27785C-9.47905 8.89655 -8.29815 7.84805 -7.69445 6.60885C-7.49855 6.20115 -6.95835 4.75545 -6.95835 4.40065C-6.95835 4.40065 -6.95835 1.73165 -6.95835 1.73165L-6.95835 1.73695Z"></path><path fill="white" transform="matrix(1.3796 0 0 1.3796 27.6411 29.8491)" d="M0.6355 4.04575C0.519 4.11995 -1.0326 4.45355 -1.2074 4.42705C-1.2074 4.42705 -4.4588 3.25145 -4.4588 3.25145C-4.1199 1.73695 -3.0661 0.60895 -2.0758 -0.50315C-2.2559 -0.67255 -3.5374 0.47655 -3.7281 0.69365C-4.2152 1.26025 -5.0149 3.28325 -5.1367 3.37325C-5.3485 3.52155 -6.5506 3.79155 -6.487 3.27265C-6.254 1.35035 -3.9293 -1.31335 -2.3194 -2.31415C1.128 -4.45355 4.5383 -3.80225 6.5506 -0.22775C5.285 0.48185 3.9187 0.87905 2.7272 1.80575C2.1076 2.28765 0.9691 3.82865 0.6355 4.04045C0.6355 4.04045 0.6355 4.04575 0.6355 4.04575Z"></path><path fill="white" transform="matrix(1.3796 0 0 1.3796 39.9744 25.8453)" d="M6.6512 2.21355C6.6512 2.21355 -1.5092 2.55245 -1.5092 2.55245C-2.4095 1.29735 -3.1297 0.0476481 -4.6336 -0.582552C-5.2108 -0.826152 -5.6874 -0.842052 -6.2329 -1.01145C-6.4076 -1.06445 -6.6512 -1.04325 -6.5983 -1.28685C-4.2418 -1.63635 -1.9011 -2.23475 0.4872 -2.38835C1.2286 -2.43595 3.3468 -2.55245 3.9611 -2.38835C5.9204 -1.86405 6.5876 0.418348 6.6459 2.20825C6.6459 2.20825 6.6512 2.21355 6.6512 2.21355Z"></path><path fill="white" transform="matrix(1.3796 0 0 1.3796 36.4235 21.9377)" d="M13.2712 -8.19776C13.2712 -8.19776 6.5352 -0.307412 6.5352 -0.307412C4.4964 0.0473876 2.3041 -0.180312 0.207001 0.0791879C0.207001 0.0791879 13.2712 -8.19776 13.2712 -8.19776Z"></path><path fill="white" transform="matrix(1.3796 0 0 1.3796 50.9094 33.6642)" d="M13.2576 5.74412C8.4387 4.85982 3.5403 3.12283 -0.171899 -0.139175C1.1838 0.0726252 2.8148 0.0143249 4.1334 0.247325C7.0724 0.761025 10.8852 3.94362 13.2576 5.74412Z"></path><path fill="white" transform="matrix(1.3796 0 0 1.3796 46.0799 37.1132)" d="M10.3172 6.18907C6.27139 5.36827 2.56979 2.98527 -0.168005 -0.0649331C1.39419 0.247467 3.50709 0.316267 4.92639 1.00477C5.51949 1.29067 6.40379 2.05327 6.92279 2.50337C7.22989 2.76817 10.5238 6.02497 10.3225 6.18377C10.3225 6.18377 10.3172 6.18907 10.3172 6.18907Z"></path><path fill="white" transform="matrix(1.3796 0 0 1.3796 31.595 43.3214)" d="M0.0159745 0.238194C0.137774 0.402394 -0.439425 1.94869 -0.555925 2.02279C-0.730625 2.13399 -2.13923 2.23459 -2.54703 2.32999C-5.84613 3.09779 -9.01293 4.18339 -12.1055 5.55499C-11.846 5.23189 -11.8725 4.46939 -11.613 4.25759C-11.1735 3.89219 -8.54163 2.73239 -7.81613 2.39879C-6.34923 1.72629 -2.72703 0.0687943 -1.29203 -0.111306C-1.00073 -0.148306 -0.0793257 0.100594 0.0212746 0.243494C0.0212746 0.243494 0.0159745 0.238194 0.0159745 0.238194Z"></path><path fill="white" transform="matrix(1.3796 0 0 1.3796 40.5615 41.252)" d="M9.3513 5.76277C6.4282 5.14327 3.6904 3.80347 1.4027 1.89177C1.1326 1.66407 -0.413697 0.313668 -0.212497 0.0594676C1.032 0.509567 2.6524 0.356068 3.8863 0.652568C5.0248 0.927968 7.7097 3.51217 8.5305 4.47067C8.6841 4.65077 9.489 5.62517 9.3566 5.76277C9.3566 5.76277 9.3513 5.76277 9.3513 5.76277Z"></path><path fill="white" transform="matrix(1.3796 0 0 1.3796 52.252 21.218)" d="M-2.05995 3.36005C-2.32475 2.32735 -2.94435 1.38475 -3.90285 0.876349C-3.90285 0.876349 1.66805 -2.94165 1.66805 -2.94165C2.44125 -3.36005 3.90285 -2.12615 3.28325 -1.31595C3.28325 -1.31595 -2.05995 3.36005 -2.05995 3.36005Z"></path><path fill="white" transform="matrix(1.3796 0 0 1.3796 62.6016 12.9689)" d="M4.96725 -4.08552L3.99285 -1.75019C3.99285 -1.75019 -3.12965 3.73072 -3.12965 3.73072C-3.78105 4.08552 -4.19405 2.68221 -4.96725 2.44391C-4.96725 2.44391 4.96725 -4.08552 4.96725 -4.08552Z"></path><path fill="white" transform="matrix(1.3796 0 0 1.3796 35.387 36.3398)" d="M4.09075 -3.9214C4.18615 -1.3689 3.80485 1.3106 1.39005 2.6716C-0.929352 3.9743 -2.14735 2.5762 -4.18615 1.5065C-3.35475 1.443 -2.57635 1.676 -1.72375 1.5807C0.749348 1.2947 2.34325 -0.564 2.78275 -2.9258C2.83045 -3.1747 2.76695 -3.8843 2.80395 -3.9161C2.86225 -3.9743 3.84195 -3.8737 4.09605 -3.9161C4.09605 -3.9161 4.09075 -3.9214 4.09075 -3.9214Z"></path><path fill="white" transform="matrix(1.3796 0 0 1.3796 33.2849 34.1037)" d="M2.11555 -1.7449C1.91965 0.5057 0.0450482 1.7449 -2.11555 1.0141C-1.32655 -0.5216 0.489848 -1.3477 2.11555 -1.7449Z"></path></svg>