<svg xmlns="http://www.w3.org/2000/svg" xmlns:xlink="http://www.w3.org/1999/xlink" viewBox="0 0 88 88" width="88" height="88" class="w-full h-full"><path fill="white" transform="matrix(1.43675 0 0 1.43675 44 43.07)" d="M-8.55728 12.5456C-9.56498 12.4306 -10.654 11.812 -11.5588 11.3849C-11.5588 11.3849 -20.823 22.9095 -20.823 22.9095L-20.823 -21.2835L-12.3226 10.5637C-12.3226 10.5637 -14.831 -0.292905 -14.831 -0.292905C-14.338 -0.407905 -13.845 0.489995 -13.482 0.823995C-13.3141 0.982695 -13.0594 1.08669 -12.9186 1.30029C-12.8373 1.31669 -12.8482 1.18529 -12.8644 1.136C-13.1407 0.446195 -14.636 -0.555705 -15.0261 -1.3058C-15.0261 -1.3058 -15.5895 -3.5997 -15.5895 -3.5997C-15.4649 -3.764 -15.2049 -3.5122 -15.0965 -3.4355C-14.1809 -2.7292 -13.3358 -1.5084 -12.4256 -0.736405C-12.3389 -0.665205 -12.2089 -0.446205 -12.1005 -0.626905C-12.1005 -0.626905 -15.7466 -4.7659 -15.7466 -4.7659C-16.0717 -5.4831 -16.2451 -6.29341 -16.3534 -7.0763C-16.3534 -7.0763 -11.6671 -2.49931 -11.6671 -2.49931L-11.4504 -2.6088L-16.6243 -8.40121C-16.6243 -8.40121 -17.1173 -10.3831 -17.1173 -10.3831C-16.9764 -10.5693 -14.04 -7.42121 -13.7962 -7.1858C-12.9402 -6.3426 -11.9434 -5.2312 -11.0874 -4.4702C-10.979 -4.37171 -10.5673 -4.1965 -10.6865 -4.4867C-10.7515 -4.64 -11.1416 -4.81521 -11.2879 -4.9794C-13.4333 -7.2898 -15.3457 -9.8411 -17.5345 -12.1077C-17.5345 -12.1077 -19.837 -20.5225 -19.837 -20.5225C-19.837 -20.5225 -17.8216 -18.4311 -17.8216 -18.4311C-14.0238 -13.991 -9.96048 -9.85201 -6.15728 -5.41741C-6.26018 -2.62521 -6.25478 0.166995 -6.42818 2.9537C-6.03808 2.65799 -6.19518 1.9627 -6.02178 1.54659C-5.97308 1.4262 -6.03268 1.3769 -5.83218 1.4098C-5.83218 1.4098 -0.219382 6.91749 -0.219382 6.91749C-0.306082 6.62179 -0.614982 6.2714 -0.815382 6.036C-2.40278 4.1582 -4.17978 2.43899 -5.73468 0.528295C-5.73468 0.528295 -5.56128 -0.687105 -5.56128 -0.687105C-5.56128 -0.687105 -5.23628 -0.632405 -5.23628 -0.632405C-3.37798 1.01559 -1.71478 3.23289 0.159818 4.8261C0.284418 4.9301 0.338618 5.0944 0.539018 5.04509C-1.33008 2.77299 -3.33468 0.577595 -5.32298 -1.59051C-5.31208 -1.8368 -5.15498 -2.9647 -4.85698 -2.88801C-4.85698 -2.88801 1.19462 3.17269 1.19462 3.17269C1.23792 2.96459 1.08082 2.9099 0.977918 2.7894C-0.593282 0.916995 -2.26738 -0.900605 -3.85468 -2.74021C-4.00098 -2.9099 -4.58608 -3.33151 -4.69448 -3.51761C-4.97618 -3.9994 -4.69448 -4.70571 -4.58068 -5.20391C-4.58068 -5.20391 1.74182 1.24549 1.74182 1.24549L1.95852 1.136L-9.38078 -13.0822L-5.18208 -17.5223L1.63342 -10.936C1.63342 -10.936 -4.56448 -18.1738 -4.56448 -18.1738C-4.58068 -18.3435 -3.95228 -19.0388 -3.70848 -18.8198C-3.70848 -18.8198 2.28902 -12.8085 2.28902 -12.8085C2.33232 -13.2081 1.94222 -13.3231 1.78512 -13.5092C0.0839181 -15.4802 -1.67678 -17.4019 -3.36708 -19.3838C-3.37798 -19.444 -2.76578 -20.3309 -2.56528 -20.1886C-2.56528 -20.1886 3.05282 -14.6863 3.05282 -14.6863C3.05282 -14.6863 -2.16978 -20.7087 -2.16978 -20.7087C-2.19148 -20.8346 -1.50888 -21.6175 -1.30838 -21.4697C-1.30838 -21.4697 3.70842 -16.5587 3.70842 -16.5587C3.70842 -16.5587 -0.929182 -21.9569 -0.929182 -21.9569C-0.961682 -22.0555 -0.0839819 -23.0245 0.0568181 -23.0574C0.0568181 -23.0574 9.36452 -13.1808 9.36452 -13.1808L4.38562 -5.67471C4.38562 -5.67471 6.21682 3.2822 6.21682 3.2822C6.40642 3.3095 6.31972 3.0303 6.32512 2.8989C6.34142 2.47189 6.34682 1.99559 6.32512 1.5685C6.24392 -0.752805 6.00552 -3.09061 6.16262 -5.41741C10.3126 -10.1422 14.5763 -14.6589 18.6938 -19.4221C18.6938 -19.4221 19.8369 -20.5225 19.8369 -20.5225L15.3673 -2.88801L11.0061 -6.9668L11.2228 -6.5836C11.2228 -6.5836 15.0964 -2.3351 15.0964 -2.3351C15.1669 -2.0942 14.9881 -0.752805 14.6034 -0.960905C14.6034 -0.960905 10.3559 -5.09441 10.3559 -5.09441C10.3072 -4.88631 10.4697 -4.8316 10.5726 -4.70571C11.8675 -3.16181 13.3573 -1.77111 14.598 -0.167005C14.7172 0.062895 14.468 0.944395 14.3325 1.19079C14.3 1.25099 14.17 1.37689 14.1754 1.24549C14.1754 1.24549 9.59752 -3.211 9.59752 -3.211C9.59752 -3.211 14.0562 1.82039 14.0562 1.82039C14.2188 1.96819 14.0129 3.2384 13.9587 3.2931C13.8504 3.3971 13.6824 3.23839 13.5903 3.17269C12.16 2.127 10.746 0.073895 9.32662 -1.1141C9.20202 -1.2182 9.14782 -1.3824 8.94732 -1.3331C8.94732 -1.3331 9.16402 -0.949905 9.16402 -0.949905C10.7135 0.714495 12.263 2.38969 13.6878 4.15809C13.6878 4.15809 12.2142 10.5637 12.2142 10.5637L20.823 -21.174L20.7796 22.7234L20.6063 23.019C20.6063 23.019 11.3961 11.4452 11.3961 11.4452C9.71672 12.4142 7.95042 12.7537 6.01632 12.6825C6.01632 12.6825 4.79192 14.8615 4.79192 14.8615C4.63482 14.9053 4.61322 14.8177 4.52112 14.752C4.27732 14.5823 2.00182 12.0748 1.85552 12.2171C1.85552 12.2171 4.42352 15.1955 4.42352 15.1955C4.55902 15.4145 3.68672 16.5751 3.60002 16.5149C3.57842 16.2685 3.37792 16.1152 3.22082 15.9619C2.69532 15.4473 2.02352 14.7794 1.47632 14.314C1.35172 14.21 1.29752 14.0457 1.09712 14.095C1.09712 14.095 3.48082 16.816 3.48082 16.816C3.54582 17.0569 2.99322 17.8617 2.77652 18.0533C2.50022 18.1135 0.972418 16.1262 0.609418 15.9674C0.479418 15.9126 0.392718 16.0003 0.446918 16.1317C0.609518 16.5094 2.39192 17.9493 2.50022 18.3599C2.60862 18.7705 1.95852 19.2961 1.87722 19.6849C1.62802 20.8784 3.75722 21.0481 3.70842 21.2014C3.22082 22.3566 2.46772 22.9807 1.15122 22.7946C0.918318 22.7617 0.766618 22.5756 0.501118 22.581C0.295218 22.5865 0.0623181 22.7562 -0.170682 22.7891C-2.21858 23.0574 -5.31208 20.1885 -5.96768 18.3107C-6.61778 16.4437 -5.46918 14.4125 -5.23078 12.5511C-6.29268 12.4635 -7.51708 12.6715 -8.55728 12.5511C-8.55728 12.5511 -8.55728 12.5456 -8.55728 12.5456Z"></path></svg>