<svg xmlns="http://www.w3.org/2000/svg" xmlns:xlink="http://www.w3.org/1999/xlink" viewBox="0 0 88 88" width="88" height="88" class="w-full h-full"><clipPath id="cl_3"><rect x="25.439102" y="7.4773293" width="37.121254" height="73.045349"></rect></clipPath><g clip-path="url(#cl_3)"><path fill="white" transform="matrix(0.443983 0 0 0.443983 43.9995 44)" d="M-41.8049 -82.2615L-41.8049 39.7775L-0.0723576 82.2615L41.8048 39.7775L41.8048 -82.2615L-41.8049 -82.2615ZM38.1798 38.1885L-0.0656576 76.9925L-38.1794 38.1945L-38.1794 -78.4865L38.1798 -78.4865L38.1798 38.1885Z"></path><path fill="white" transform="matrix(0.443983 0 0 0.443983 43.9975 43.413)" d="M-35.4175 -74.3006L-35.4175 38.3116L-0.0657576 74.3006L35.4174 38.3046L35.4174 -74.3006L-35.4175 -74.3006ZM4.23706e-05 -44.6833L-15.9784 -3.52145L16.9604 24.6985L4.23706e-05 68.3745L-16.9607 24.6985L-10.369 19.0455L-3.11136 25.2666L-5.76766 27.5415L4.23706e-05 42.4016L5.76744 27.5415L-27.1714 -0.67845L4.23706e-05 -70.6694L27.1714 -0.67845L10.3624 13.7226L3.11144 7.50155L15.9784 -3.52145L4.23706e-05 -44.6833Z"></path></g></svg>