<svg xmlns="http://www.w3.org/2000/svg" xmlns:xlink="http://www.w3.org/1999/xlink" viewBox="0 0 88 88" width="88" height="88" class="w-full h-full"><clipPath id="cl_4"><rect x="7.9860878" y="7.7984543" width="72.077209" height="72.077118"></rect></clipPath><g clip-path="url(#cl_4)"><path fill="white" transform="matrix(0.443714 0 0 0.443714 29.9476 14.0891)" d="M2.59565 0.701402L2.59565 -4.3521L-2.32545 -3.5414C-2.32545 -3.5414 -2.32545 -1.742 -2.32545 -1.742C-2.32545 -0.965798 -2.38885 -0.160998 -2.51525 0.684202C-2.51525 0.684202 -2.65335 1.5637 -2.65335 1.5637L-3.34885 1.6787L-3.34885 4.3521L-1.88285 4.1106L-1.88285 2.8228L1.87685 2.2077L1.87685 3.4954L3.34885 3.254L3.34885 0.574902L2.59565 0.701402ZM1.09495 0.983102L-1.19305 1.3568C-1.19305 1.3568 -1.06655 0.517402 -1.06655 0.517402C-0.93445 -0.321998 -0.87115 -1.1326 -0.87115 -1.903C-0.87115 -1.903 -0.87115 -2.4261 -0.87115 -2.4261L1.09495 -2.7538L1.09495 0.983102Z"></path><path fill="white" transform="matrix(0.443714 0 0 0.443714 33.1884 13.3174)" d="M2.1243 -2.8487C1.6126 -3.2798 0.9055 -3.4408 -0.0028 -3.3316C-0.5836 -3.2569 -1.0953 -3.0844 -1.5322 -2.8027C-1.9632 -2.5267 -2.3025 -2.1588 -2.5326 -1.7103C-2.7681 -1.2619 -2.8832 -0.756 -2.8832 -0.1926C-2.8832 -0.1926 -2.8832 0.894 -2.8832 0.894C-2.8832 1.7678 -2.6303 2.4232 -2.1243 2.8487C-1.6126 3.2799 -0.9055 3.4408 -0.0028 3.3316C0.5836 3.2569 1.0952 3.0844 1.5322 2.8027C1.9632 2.521 2.2968 2.1588 2.5326 1.7104C2.7681 1.2619 2.8832 0.756 2.8832 0.1926C2.8832 0.1926 2.8832 -0.894 2.8832 -0.894C2.8832 -1.7621 2.6303 -2.4175 2.1243 -2.8487ZM1.3424 0.4801C1.3424 0.8997 1.2274 1.2332 0.9975 1.4861C0.7617 1.7333 0.4341 1.8886 -0.0028 1.9403C-0.4284 1.9921 -0.756 1.9173 -0.9975 1.7218C-1.2331 1.5206 -1.3538 1.2159 -1.3538 0.8078C-1.3538 0.8078 -1.3538 -0.48 -1.3538 -0.48C-1.3538 -0.8997 -1.2331 -1.2332 -1.0032 -1.4861C-0.7734 -1.7334 -0.4398 -1.8886 -0.0028 -1.9403C0.4284 -1.992 0.756 -1.9173 0.9918 -1.7218C1.2274 -1.5206 1.3424 -1.2159 1.3424 -0.8077C1.3424 -0.8077 1.3424 0.4801 1.3424 0.4801Z"></path><path fill="white" transform="matrix(0.443714 0 0 0.443714 37.3317 12.9195)" d="M-2.69351 -3.0297L-2.69351 3.4092L-1.16991 3.3L-1.16991 -1.7477L1.16979 -1.9144L1.16979 3.1333L2.69349 3.0298L2.69349 -3.4092L-2.69351 -3.0297Z"></path><path fill="white" transform="matrix(0.443714 0 0 0.443714 40.2877 12.7649)" d="M-0.8194 1.93745L-0.8194 0.649652L0.9629 0.586452L0.9629 -0.666848L-0.8194 -0.592148L-0.8194 -1.89145L2.0667 -1.98915L2.0667 -3.29425L-2.2968 -3.14475L-2.2968 3.29425L2.2968 3.13325L2.2968 1.82825L-0.8194 1.93745Z"></path><path fill="white" transform="matrix(0.443714 0 0 0.443714 43.0094 12.721)" d="M1.91714 -2.66185C1.50324 -3.01825 0.911142 -3.20225 0.152242 -3.20795C0.152242 -3.20795 -2.54396 -3.22525 -2.54396 -3.22525L-2.54396 3.21375L-1.01486 3.22525L-1.01486 1.09235C-1.01486 1.09235 0.152242 1.09235 0.152242 1.09235C0.893842 1.10385 1.48024 0.92565 1.90584 0.56915C2.33094 0.20695 2.54394 -0.28175 2.54394 -0.90835C2.54394 -0.90835 2.54394 -1.16705 2.54394 -1.16705C2.54394 -1.80525 2.33694 -2.29965 1.91714 -2.66185ZM1.00884 -0.93135C1.00884 -0.67265 0.928442 -0.47145 0.773042 -0.33915C0.617942 -0.20125 0.388042 -0.13225 0.0889424 -0.13225C0.0889424 -0.13225 -1.01486 -0.14375 -1.01486 -0.14375L-1.01486 -1.94315C-1.01486 -1.94315 0.0889424 -1.94315 0.0889424 -1.94315C0.388042 -1.93745 0.617942 -1.86275 0.773042 -1.72475C0.928442 -1.58675 1.00884 -1.39125 1.00884 -1.13255C1.00884 -1.13255 1.00884 -0.93135 1.00884 -0.93135Z"></path><path fill="white" transform="matrix(0.443714 0 0 0.443714 45.726 12.7312)" d="M-0.821492 1.90295L-0.821492 0.61515L0.966508 0.63815L0.966508 -0.61515L-0.821492 -0.62665L-0.821492 -1.92595L2.07051 -1.89145L2.07051 -3.19655L-2.29949 -3.24825L-2.29949 3.19075L2.29951 3.24825L2.29951 1.93745L-0.821492 1.90295Z"></path><path fill="white" transform="matrix(0.443714 0 0 0.443714 48.8615 12.8403)" d="M1.843 -3.1189L0.026 -0.4053L-1.785 -3.3201L-3.475 -3.4121L-3.475 3.0269L-1.969 3.1074L-1.969 -1.0837L-0.02 1.9633L0.015 1.9633L1.964 -0.8767L1.964 3.3259L3.475 3.4121L3.475 -3.0269L1.843 -3.1189Z"></path><path fill="white" transform="matrix(0.443714 0 0 0.443714 52.3444 13.1102)" d="M2.12951 -2.3801C1.61851 -2.9263 0.911508 -3.2425 0.00250763 -3.3345C-0.583492 -3.3862 -1.09549 -3.323 -1.53249 -3.139C-1.96949 -2.9551 -2.30249 -2.6676 -2.53849 -2.2709C-2.77449 -1.8742 -2.89449 -1.3913 -2.89449 -0.8279C-2.89449 -0.8279 -2.89449 0.2587 -2.89449 0.2587C-2.89449 1.1325 -2.63649 1.8454 -2.13049 2.3858C-1.61849 2.9263 -0.911492 3.2367 0.00250763 3.3287C0.589508 3.3862 1.09451 3.3229 1.53151 3.139C1.96851 2.955 2.30851 2.6618 2.54351 2.2651C2.77351 1.8684 2.89451 1.3855 2.89451 0.8221C2.89451 0.8221 2.89451 -0.2587 2.89451 -0.2587C2.89451 -1.1326 2.63551 -1.8397 2.12951 -2.3801ZM1.34851 0.7761C1.34851 1.19 1.23251 1.5005 0.997508 1.7017C0.767508 1.9029 0.433508 1.9834 0.00250763 1.9374C-0.428492 1.8972 -0.762492 1.7534 -0.997492 1.5005C-1.23349 1.2533 -1.35449 0.9198 -1.35449 0.5116C-1.35449 0.5116 -1.35449 -0.7762 -1.35449 -0.7762C-1.35449 -1.1958 -1.23949 -1.5063 -1.00949 -1.7075C-0.773492 -1.9087 -0.439492 -1.9835 0.00250763 -1.9432C0.428508 -1.903 0.761508 -1.7535 0.991508 -1.5063C1.22751 -1.2533 1.34851 -0.9256 1.34851 -0.5117C1.34851 -0.5117 1.34851 0.7761 1.34851 0.7761Z"></path><path fill="white" transform="matrix(0.443714 0 0 0.443714 55.2408 13.3591)" d="M-2.176 -3.32005L-2.176 3.11885L-0.664 3.32005L-0.664 -1.73335L2.176 -1.35385L2.176 -2.74515L-2.176 -3.32005Z"></path><path fill="white" transform="matrix(0.443714 0 0 0.443714 57.9707 13.8583)" d="M1.2475 -3.00675L-1.2415 0.58065L-1.2415 -3.43225L-2.7195 -3.68515L-2.7195 2.75375L-1.2535 3.00675L1.2415 -0.58065L1.2415 3.43215L2.7195 3.68515L2.7195 -2.75385L1.2475 -3.00675Z"></path><path fill="white" transform="matrix(0.443714 0 0 0.443714 37.0423 41.8785)" d="M15.2524 -35.5526C1.83405 -35.5526 -9.07765 -24.6348 -9.07765 -11.2164C-9.07765 -6.98515 -7.96815 -2.84585 -5.89275 0.80465C-5.89275 0.80465 -2.97795 -0.32215 -2.97795 -0.32215L2.06395 -7.02545L-6.19725 -10.5669L2.06985 -14.0912L-3.31725 -21.2945L5.61105 -20.2082L4.54765 -29.1364L11.7339 -23.7379L15.2754 -31.9995L18.8001 -23.7323L25.9921 -29.1133L24.917 -20.1968L33.8391 -21.2602L28.441 -14.0681L36.702 -10.5267L28.2801 -6.93345L32.3391 0.14955L23.5021 -1.59835L23.9911 7.42155L16.4251 2.46615L13.4703 11.5616L5.12235 6.73255L2.14455 15.9075L-6.20895 11.0786L-9.18705 20.2535L-17.5289 15.4246L-20.5011 24.5945L-28.8545 19.7705L-31.8382 28.9466C-31.8382 28.9466 -35.7191 26.6985 -35.7191 26.6985C-35.9606 25.6985 -36.173 24.6866 -36.3685 23.6686C-36.3685 23.6686 -33.1432 25.5315 -33.1432 25.5315L-30.1654 16.3556L-21.812 21.1796L-18.8396 12.0096L-10.492 16.8386L-7.51385 7.66355L0.83935 12.4925L3.81745 3.31715L12.1652 8.14655L15.1662 -1.10965L21.4501 3.00655L21.0471 -4.42695L27.837 -3.08175L24.997 -8.03725L30.855 -10.5323L24.848 -13.1081L28.774 -18.3398L22.278 -17.5636L23.0651 -24.0485L17.8281 -20.1334L15.2696 -26.1469L12.694 -20.139L7.46805 -24.0658L8.23855 -17.5749L1.74765 -18.3627L5.66305 -13.1251L-0.34485 -10.5612L5.65705 -7.98555L1.06945 -1.87995C1.06945 -1.87995 12.1709 -6.15725 12.1709 -6.15725C10.4635 -7.19795 9.31935 -9.07795 9.31935 -11.2164C9.31935 -14.4935 11.9811 -17.1553 15.2524 -17.1553C18.524 -17.1553 21.191 -14.4935 21.191 -11.2164C21.191 -9.87115 20.7371 -8.62965 19.9781 -7.63495C19.219 -6.63455 18.1561 -5.88705 16.9251 -5.52505C16.9251 -5.52505 -37.4897 15.4536 -37.4897 15.4536C-37.5299 15.0506 -37.5587 14.6545 -37.5816 14.2515C-37.5816 14.2515 -39.5824 15.0225 -39.5824 15.0225L-39.5881 15.0225L-37.9383 22.7605L-37.2942 25.7955L-35.4544 34.4196L-35.2187 35.5235L-35.2187 35.5526L-35.2074 35.5526C-35.2074 35.5526 -33.333 34.8275 -33.333 34.8275C-33.4655 34.4715 -33.5862 34.1096 -33.7066 33.7476C-33.7066 33.7476 24.514 11.2915 24.514 11.2915C33.569 7.56555 39.5881 -1.36845 39.5881 -11.2164C39.5881 -24.6348 28.6711 -35.5526 15.2524 -35.5526Z"></path><path fill="white" transform="matrix(0.443714 0 0 0.443714 56.691 50.5687)" d="M25.8275 -4.56475L24.1775 3.17325L23.5345 6.20925L21.6945 14.8272L21.4525 15.9653C21.4525 15.9653 19.5495 15.2353 19.5495 15.2353C19.6825 14.8733 19.8085 14.5103 19.9295 14.1482C19.9295 14.1482 -25.8275 -3.49575 -25.8275 -3.49575L-20.0095 -5.73775C-20.0095 -5.73775 -19.8485 -5.80075 -19.8485 -5.80075C-18.8655 -6.16275 -17.9115 -6.57675 -16.9975 -7.04275C-16.9975 -7.04275 -15.9045 -3.67975 -15.9045 -3.67975L-7.5515 -8.50875L-4.5735 0.66725L3.7745 -4.16275L6.7465 5.00725L15.1005 0.18425L18.0785 9.35925C18.0785 9.35925 21.9355 7.12825 21.9355 7.12825C22.1715 6.12825 22.3895 5.11625 22.5855 4.09925C22.5855 4.09925 19.3885 5.94425 19.3885 5.94425L16.4115 -3.23075L8.0575 1.59225L5.0855 -7.57775L-3.2625 -2.74775L-6.2405 -11.9237L-14.5935 -7.09475C-14.5935 -7.09475 -14.9565 -8.20375 -14.9565 -8.20375C-11.7425 -10.2107 -9.0225 -12.8728 -6.9475 -15.9653C-6.9475 -15.9653 23.7065 -4.14475 23.7065 -4.14475C23.7465 -4.54775 23.7755 -4.94375 23.7985 -5.34675C23.7985 -5.34675 25.8275 -4.56475 25.8275 -4.56475Z"></path><path fill="white" transform="matrix(0.443714 0 0 0.443714 43.7211 60.0262)" d="M48.4099 -0.336C48.4099 -0.336 46.7659 -0.974 46.7659 -0.974C46.6169 -0.624 46.4608 -0.273 46.3008 0.078C46.3008 0.078 0.20435 -17.693 0.20435 -17.693C0.20435 -17.693 -45.8861 0.078 -45.8861 0.078C-46.0527 -0.273 -46.208 -0.624 -46.3573 -0.974C-46.3573 -0.974 -48.4099 -0.181 -48.4099 -0.181L-48.4041 -0.181L-47.7891 0.808L-41.7238 10.461L-40.6199 12.214L-37.1819 17.693C-37.1819 17.693 -35.3423 16.98 -35.3423 16.98C-35.5951 16.675 -35.8482 16.365 -36.0897 16.049C-36.0897 16.049 0.19845 2.055 0.19845 2.055C0.19845 2.055 36.4929 16.049 36.4929 16.049C36.2458 16.365 35.9918 16.681 35.7398 16.986C35.7398 16.986 37.2229 17.567 37.2229 17.567L40.4599 12.392L41.9888 9.949L47.7898 0.653L48.3988 -0.319L48.4099 -0.336ZM39.9879 11.3L38.1199 4.838L30.1059 9.782L27.4778 0.739L19.4639 5.689L16.8368 -3.366L8.82185 1.578L6.24685 -7.275L0.19845 -2.509L-5.83785 -7.281L-8.40765 1.584L-16.4277 -3.366L-19.0494 5.677L-27.0634 0.733L-29.6852 9.776L-37.6992 4.832C-37.6992 4.832 -39.5736 11.3 -39.5736 11.3C-40.1427 10.461 -40.6947 9.61 -41.2294 8.753C-41.2294 8.753 -39.0619 1.291 -39.0619 1.291L-31.0476 6.235L-28.4261 -2.808L-20.4118 2.136L-17.7903 -6.913L-9.77025 -1.963L-7.09705 -11.202L0.20435 -5.441L7.50585 -11.196L10.1848 -1.963L18.1989 -6.907L20.8258 2.142L28.8409 -2.802L31.4678 6.241L39.4818 1.296C39.4818 1.296 41.6438 8.747 41.6438 8.747C41.1088 9.61 40.5569 10.461 39.9879 11.3Z"></path><path fill="white" transform="matrix(0.443714 0 0 0.443714 43.6952 70.5524)" d="M31.9044 -2.337C31.6114 -2.032 31.3184 -1.733 31.0244 -1.434C31.0244 -1.434 0.2499 -13.295 0.2499 -13.295C0.2499 -13.295 -30.525 -1.44 -30.525 -1.44C-30.8239 -1.739 -31.1171 -2.038 -31.4103 -2.343C-31.4103 -2.343 -33.4684 -1.532 -33.4684 -1.532L-32.4107 -0.71L-20.7285 8.328L-20.2225 8.718L-14.3126 13.295C-14.3126 13.295 -11.8922 12.306 -11.8922 12.306C-12.3233 12.082 -12.7489 11.858 -13.1742 11.622C-13.1742 11.622 0.2499 6.448 0.2499 6.448C0.2499 6.448 13.6684 11.622 13.6684 11.622C13.2424 11.858 12.8174 12.087 12.3864 12.312C12.3864 12.312 14.5594 13.197 14.5594 13.197L19.9524 8.943L21.1424 8.006L32.4214 -0.9L33.4684 -1.722C33.4684 -1.722 31.9044 -2.337 31.9044 -2.337ZM18.8944 8.489L16.8594 1.038L8.8674 5.965L6.2924 -2.889L0.2442 1.877L-5.7923 -2.895L-8.3565 5.965L-16.3591 1.038C-16.3591 1.038 -18.3885 8.494 -18.3885 8.494C-19.067 8.052 -19.7395 7.597 -20.4009 7.126C-20.4009 7.126 -17.7677 -2.532 -17.7677 -2.532L-9.7247 2.423L-7.0515 -6.815L0.2499 -1.055L7.5514 -6.81L10.2304 2.423L18.2674 -2.532C18.2674 -2.532 20.9004 7.126 20.9004 7.126C20.2394 7.597 19.5724 8.052 18.8944 8.489Z"></path><path fill="white" transform="matrix(0.443714 0 0 0.443714 43.8223 52.8961)" d="M50.7159 9.584C50.7159 9.584 48.9509 8.905 48.9509 8.905C48.8299 9.268 48.7038 9.63 48.5709 9.992C48.4449 10.354 48.3189 10.716 48.1799 11.073C48.1799 11.073 50.0598 11.797 50.0598 11.797L50.4739 10.722L50.8879 9.653L50.7159 9.584ZM-48.5998 9.998C-48.7318 9.641 -48.8526 9.279 -48.9734 8.917C-48.9734 8.917 -50.721 9.59 -50.721 9.59L-50.8877 9.653L-50.4854 10.693L-50.4738 10.722L-50.0598 11.797C-50.0598 11.797 -48.2029 11.079 -48.2029 11.079C-48.341 10.722 -48.473 10.36 -48.5998 9.998ZM53.3599 -2.161L53.1998 -2.07C53.1998 -2.07 51.6068 -1.144 51.6068 -1.144C51.4118 -0.126 51.1928 0.885 50.9568 1.886C50.9568 1.886 52.5559 0.966 52.5559 0.966L54.5098 -0.167L53.3599 -2.161ZM52.8949 -11.797C52.8719 -11.395 52.8489 -10.992 52.8199 -10.59C52.7969 -10.187 52.7679 -9.79 52.7279 -9.388C52.7279 -9.388 54.4348 -8.733 54.4348 -8.733L54.8489 -9.808L55.2629 -10.883C55.2629 -10.883 52.8949 -11.797 52.8949 -11.797ZM-52.848 -10.578C-52.877 -10.981 -52.8998 -11.383 -52.9171 -11.786C-52.9171 -11.786 -55.2629 -10.883 -55.2629 -10.883L-54.8489 -9.808L-54.4348 -8.733C-54.4348 -8.733 -52.7564 -9.377 -52.7564 -9.377C-52.7964 -9.779 -52.8251 -10.176 -52.848 -10.578ZM-51.6353 -1.161L-53.2047 -2.07L-53.3138 -2.133L-54.4636 -0.138L-52.5608 0.966C-52.5608 0.966 -50.9855 1.868 -50.9855 1.868C-51.227 0.868 -51.4398 -0.144 -51.6353 -1.161Z"></path><path fill="white" transform="matrix(0.443714 0 0 0.443714 22.716 59.7728)" d="M0.99725 -0.402C1.14675 -0.052 1.30215 0.299 1.46885 0.65C1.46885 0.65 -0.43405 1.38 -0.43405 1.38L-0.64125 1.46L-1.04925 0.397L-1.05515 0.397L-1.46885 -0.684C-1.46885 -0.684 0.54325 -1.46 0.54325 -1.46C0.68705 -1.109 0.83645 -0.753 0.99725 -0.402Z"></path><path fill="white" transform="matrix(0.443714 0 0 0.443714 64.8308 59.742)" d="M1.262 -0.7645L0.854 0.3105L0.848 0.3105L0.848 0.3275L0.44 1.3795L0.233 1.2995C0.233 1.2995 -1.262 0.7245 -1.262 0.7245C-1.101 0.3735 -0.946 0.0235 -0.796 -0.3275C-0.636 -0.6785 -0.486 -1.0285 -0.342 -1.3795C-0.342 -1.3795 1.262 -0.7645 1.262 -0.7645Z"></path><path fill="white" transform="matrix(0.443714 0 0 0.443714 27.723 67.7541)" d="M0.733004 -0.4315C0.991504 -0.1155 1.2504 0.2005 1.5149 0.5115C1.5149 0.5115 -0.692996 1.3625 -0.692996 1.3625L-1.1066 0.2875L-1.5149 -0.7825C-1.5149 -0.7825 -0.00879619 -1.3625 -0.00879619 -1.3625C0.232704 -1.0465 0.485804 -0.7365 0.738704 -0.4315C0.738704 -0.4315 0.733004 -0.4315 0.733004 -0.4315Z"></path><path fill="white" transform="matrix(0.443714 0 0 0.443714 59.8352 67.7246)" d="M1.33948 -0.854L0.925485 0.221L0.511485 1.296C0.511485 1.296 -1.33952 0.584 -1.33952 0.584C-1.08052 0.273 -0.816515 -0.043 -0.557515 -0.359C-0.304515 -0.664 -0.0515153 -0.98 0.195485 -1.296C0.195485 -1.296 1.33948 -0.854 1.33948 -0.854Z"></path><path fill="white" transform="matrix(0.443714 0 0 0.443714 25.6027 64.7269)" d="M-0.387904 -1.837C0.146496 -0.98 0.698496 -0.129 1.2676 0.71C1.2676 0.71 0.939996 1.837 0.939996 1.837L0.221196 1.63L-1.2676 1.193L-0.882604 -0.129C-0.882604 -0.129 -0.387904 -1.837 -0.387904 -1.837Z"></path><path fill="white" transform="matrix(0.443714 0 0 0.443714 62.0303 64.7244)" d="M1.27052 1.2045L-0.793485 1.7965L-0.943485 1.8425C-0.943485 1.8425 -1.27048 0.7105 -1.27048 0.7105C-0.701485 -0.1295 -0.149485 -0.9805 0.384515 -1.8425C0.384515 -1.8425 0.735515 -0.6465 0.735515 -0.6465L1.27052 1.2045Z"></path><path fill="white" transform="matrix(0.443714 0 0 0.443714 29.4145 69.7269)" d="M0.7934 -0.491515C1.0866 -0.186515 1.3798 0.112485 1.6787 0.411485C1.6787 0.411485 -0.207 1.14148 -0.207 1.14148L-0.8508 1.38848L-1.2647 0.319485L-1.6787 -0.755515C-1.6787 -0.755515 -0.0402 -1.38852 -0.0402 -1.38852C0.2357 -1.08952 0.5175 -0.790515 0.7934 -0.491515Z"></path><path fill="white" transform="matrix(0.443714 0 0 0.443714 58.1069 69.6885)" d="M1.4285 -0.854L1.0145 0.221L0.6065 1.291L-0.0315 1.043C-0.0315 1.043 -1.4285 0.509 -1.4285 0.509C-1.1355 0.21 -0.8425 -0.089 -0.5495 -0.394C-0.2675 -0.693 0.0145 -0.992 0.2905 -1.291C0.2905 -1.291 1.4285 -0.854 1.4285 -0.854Z"></path><path fill="white" transform="matrix(0.443714 0 0 0.443714 38.1181 76.3185)" d="M0.692792 -0.69C1.17009 -0.437 1.65279 -0.195 2.14149 0.04C2.14149 0.04 -1.31361 1.374 -1.31361 1.374L-1.72761 0.299L-2.14151 -0.776C-2.14151 -0.776 -0.589108 -1.374 -0.589108 -1.374C-0.163808 -1.138 0.261492 -0.914 0.692792 -0.69Z"></path><path fill="white" transform="matrix(0.443714 0 0 0.443714 49.4476 76.2969)" d="M2.015 -0.819515L1.601 0.249485L1.187 1.32548C1.187 1.32548 -2.015 0.0884847 -2.015 0.0884847C-1.532 -0.146515 -1.049 -0.388515 -0.572 -0.635515C-0.141 -0.859515 0.285 -1.08952 0.71 -1.32552C0.71 -1.32552 2.015 -0.819515 2.015 -0.819515Z"></path><path fill="white" transform="matrix(0.443714 0 0 0.443714 35.0092 74.1636)" d="M-0.810592 -1.02352C-0.149492 -0.551515 0.523308 -0.0975153 1.20151 0.344485C1.20151 0.344485 1.01771 1.02348 1.01771 1.02348L-0.632492 0.569485L-1.20149 0.414485L-1.13819 0.178485C-1.13819 0.178485 -0.810592 -1.02352 -0.810592 -1.02352Z"></path><path fill="white" transform="matrix(0.443714 0 0 0.443714 52.6173 74.1649)" d="M1.20149 0.4225L-0.143508 0.7905L-1.01151 1.0265C-1.01151 1.0265 -1.20151 0.3365 -1.20151 0.3365C-0.522508 -0.1005 0.143492 -0.5545 0.805492 -1.0265C0.805492 -1.0265 1.04649 -0.1465 1.04649 -0.1465L1.20149 0.4225Z"></path><path fill="white" transform="matrix(0.443714 0 0 0.442839 43.8139 43.8819)" d="M2.6208 -81.4818C0.9368 -81.4818 -0.0002 -81.4473 -0.0002 -81.4473C-0.0002 -81.4473 -0.9316 -81.4818 -2.6218 -81.4818C-10.4807 -81.4818 -34.673 -80.7458 -57.0368 -72.381C-57.0368 -72.381 -57.0368 4.32375 -57.0368 4.32375C-57.0368 39.1797 -34.7534 70.3627 -1.5583 80.9987C-1.0466 81.1598 -0.5233 81.3268 -0.0002 81.4818C0.5288 81.3268 1.0458 81.1598 1.5638 80.9987C34.7528 70.3627 57.0368 39.1797 57.0368 4.32375C57.0368 4.32375 57.0368 -72.381 57.0368 -72.381C34.6728 -80.7458 10.4808 -81.4818 2.6208 -81.4818ZM-53.0125 -69.5525C-31.7869 -76.8709 -9.2331 -77.4574 -2.6218 -77.4574C-1.0466 -77.4574 -0.1554 -77.4286 -0.144 -77.4286C-0.144 -77.4286 -0.0002 -77.4286 -0.0002 -77.4286C-0.0002 -77.4286 0.1435 -77.4286 0.1435 -77.4286C0.1552 -77.4286 1.0458 -77.4574 2.6208 -77.4574C9.2328 -77.4574 31.7918 -76.8709 53.0118 -69.5525C53.0118 -69.5525 53.0118 -54.6738 53.0118 -54.6738C27.6008 -62.964 1.8968 -62.2799 -0.0002 -62.2165C-1.8973 -62.2799 -27.6016 -62.964 -53.0125 -54.6738C-53.0125 -54.6738 -53.0125 -69.5525 -53.0125 -69.5525ZM47.6368 -52.1096C47.6368 -52.1096 -47.6371 -52.1096 -47.6371 -52.1096C-23.807 -58.951 -0.3278 -58.2038 -0.075 -58.1922C-0.075 -58.1922 0.0745 -58.1922 0.0745 -58.1922C0.3276 -58.2038 23.7898 -58.9625 47.6368 -52.1096ZM32.4938 56.7088C32.2178 57.0078 31.9358 57.3068 31.6548 57.6058C31.3608 57.9108 31.0678 58.2098 30.7748 58.5088C27.6468 61.6707 24.2608 64.5337 20.6508 67.0687C19.9898 67.5397 19.3228 67.9948 18.6438 68.4317C16.9478 69.5518 15.2058 70.5987 13.4178 71.5648C12.9928 71.7998 12.5668 72.0308 12.1358 72.2548C11.6588 72.5018 11.1758 72.7428 10.6928 72.9788C7.3698 74.6227 3.9148 76.0198 0.3333 77.1637C0.2239 77.1988 0.1148 77.2337 -0.0002 77.2738C-0.1094 77.2337 -0.2244 77.1988 -0.3335 77.1637C-3.9153 76.0198 -7.3705 74.6227 -10.6934 72.9788C-11.1821 72.7428 -11.6651 72.5017 -12.1422 72.2487C-12.5734 72.0247 -12.9988 71.7998 -13.4244 71.5648C-15.2066 70.5928 -16.9485 69.5518 -18.6387 68.4368C-19.3172 67.9948 -19.9897 67.5397 -20.6508 67.0687C-24.2613 64.5277 -27.6474 61.6647 -30.7749 58.5028C-31.0741 58.2038 -31.3673 57.9048 -31.6605 57.5998C-31.9364 57.3008 -32.2179 57.0018 -32.4941 56.7028C-33.27 55.8698 -34.0232 55.0187 -34.759 54.1507C-35.0236 53.8397 -35.2824 53.5238 -35.5409 53.2077C-35.7941 52.9027 -36.0469 52.5928 -36.2884 52.2767C-37.0416 51.3337 -37.7718 50.3738 -38.4787 49.3908C-38.9216 48.7757 -39.3583 48.1537 -39.7782 47.5277C-40.3473 46.6877 -40.899 45.8377 -41.4337 44.9808C-43.1816 42.1808 -44.7337 39.2838 -46.0906 36.3058C-46.2574 35.9548 -46.4126 35.6037 -46.562 35.2537C-46.7231 34.9027 -46.8725 34.5468 -47.0163 34.1958C-47.4302 33.2188 -47.8212 32.2298 -48.1891 31.2348C-48.3269 30.8787 -48.4593 30.5157 -48.5857 30.1537C-48.7179 29.7977 -48.8386 29.4358 -48.9594 29.0728C-49.7469 26.7617 -50.4197 24.4107 -50.9715 22.0247C-51.2129 21.0247 -51.4257 20.0127 -51.6212 18.9947C-52.1443 16.2927 -52.5182 13.5507 -52.7423 10.7797C-52.7824 10.3767 -52.8114 9.98075 -52.8344 9.57775C-52.8631 9.17575 -52.8861 8.77275 -52.9031 8.37075C-52.9779 7.02575 -53.0125 5.67475 -53.0125 4.32375C-53.0125 4.32375 -53.0125 -48.0854 -53.0125 -48.0854L53.0118 -48.0854C53.0118 -48.0854 53.0118 4.32375 53.0118 4.32375C53.0118 5.67475 52.9778 7.01975 52.9088 8.35875C52.8858 8.76175 52.8628 9.16375 52.8338 9.56675C52.8108 9.96875 52.7818 10.3657 52.7418 10.7677C52.5178 13.5448 52.1378 16.2987 51.6208 19.0128C51.4248 20.0298 51.2068 21.0417 50.9708 22.0417C50.4188 24.4167 49.7468 26.7558 48.9648 29.0618C48.8438 29.4237 48.7178 29.7858 48.5848 30.1478C48.4588 30.5108 48.3328 30.8727 48.1948 31.2288C47.8268 32.2298 47.4298 33.2188 47.0158 34.2018C46.8718 34.5518 46.7228 34.9027 46.5618 35.2537C46.4118 35.6037 46.2568 35.9548 46.0958 36.3058C44.7388 39.2778 43.1808 42.1758 41.4388 44.9748C40.9048 45.8377 40.3528 46.6877 39.7838 47.5277C39.3578 48.1537 38.9268 48.7757 38.4838 49.3908C37.7768 50.3738 37.0468 51.3337 36.2938 52.2767C36.0468 52.5928 35.7938 52.9087 35.5408 53.2137C35.2818 53.5298 35.0178 53.8457 34.7588 54.1567C34.0228 55.0247 33.2638 55.8758 32.4938 56.7088Z"></path><path fill="none" stroke="white" stroke-width="6" stroke-linecap="square" stroke-miterlimit="4" transform="matrix(0.221188 0 0 0.221188 66.6627 52.9994)" d="M2.02507e-05 2.6328e-05L-7.7388 4.30568L-13.4958 -14.4139L-29.8836 -4.74583L-36.2642 -22.9979L-53.0192 -13.0826L-58.9272 -31.2506L-75.4179 -21.6961L-76.3044 -23.3706"></path><path fill="none" stroke="white" stroke-width="6" stroke-linecap="square" stroke-miterlimit="4" transform="matrix(0.221188 0 0 0.221188 37.38 50.1652)" d="M-6.18273 -41.7977L4.69868 -46.0362L1.86129 -48.0882L6.47324 -53.2006L-10.7185 -58.5721L7.16136 -65.2656L-4.32923 -78.062L13.1455 -74.9014L9.07963 -93.6689L22.7151 -81.3204L29.052 -96.1254L35.4947 -82.1429L47.5662 -91.1904L45.98 -75.4455L60.7849 -77.0905L52.4425 -64.5181L65.8374 -58.5721L51.9082 -52.5919L59.7274 -39.8432L43.16 -43.6619L43.6888 -27.0358L30.5538 -35.8482L24.0076 -18.437L7.63264 -27.0357L1.8613 -9.23507L-15.6915 -19.422L-21.6661 -0.109266L-37.9972 -9.23505L-43.6599 8.06789L-60.8471 -1.52412L-66.4747 17.1194L-74.6419 12.081"></path><path fill="none" stroke="white" stroke-width="6" stroke-linecap="square" stroke-miterlimit="4" transform="matrix(0.221188 0 0 0.221188 35.0092 74.0004)" d="M0 -1.08704e-05L5.09677 -16.9045L21.0162 -6.93322L26.5087 -25.5065L39.7705 -14.9019L53.0639 -25.5065L58.4735 -7.51849L74.2308 -16.9044L80.3537 2.79083L95.8329 -8.801L106.409 -17.9502L119.615 -32.267L122.927 -38.241L117.194 -57.0777L101.56 -47.0309L95.8329 -65.2309L80.3537 -55.6049L74.2308 -73.9046L58.4735 -63.7055L53.0639 -81.6951L39.7705 -71.0696L26.5087 -81.2743L21.4594 -63.7054L5.09677 -73.0685L0 -55.6048L-16.1658 -65.2309L-21.9263 -47.0308L-37.815 -57.0777L-41.8275 -42.9605"></path></g></svg>