<svg xmlns="http://www.w3.org/2000/svg" xmlns:xlink="http://www.w3.org/1999/xlink" viewBox="0 0 88 88" width="88" height="88" class="w-full h-full"><path fill="white" transform="matrix(1.03245 0 0 1.03245 44.9557 44.1594)" d="M1.344 36.407C8.8161 23.6801 -6.2946 17.0893 -13.2337 9.28424C-16.5495 5.55094 -19.322 1.30084 -21.8614 -2.99316C-12.4573 5.14784 -1.1057 9.24544 9.6925 14.9914C9.6925 14.9914 9.8283 14.5729 9.8283 14.5729C6.9968 7.93304 -0.6367 6.38024 -6.4842 3.04994C-14.9787 -1.78916 -23.7576 -7.88386 -27.6628 -17.2702C-20.0857 -10.6252 -10.7558 -4.31076 -1.0698 -1.27246C-0.0832 -0.962364 1.8002 -0.120164 2.7585 -0.706564C-11.5297 -7.17596 -27.7602 -18.7791 -27.5142 -36.407C-19.8012 -25.1451 -12.0729 -15.7821 0.6804 -10.1782C8.1294 -6.90466 17.9512 -6.18386 21.5668 2.44024C27.7602 17.2107 13.8282 31.2217 1.3492 36.407C1.3492 36.407 1.344 36.407 1.344 36.407Z"></path><path fill="white" transform="matrix(1.03245 0 0 1.03245 52.3465 23.3269)" d="M14.8417 3.18555C14.8417 3.18555 9.47075 1.60955 9.47075 1.60955C11.5413 5.52895 15.2414 2.51385 17.3811 5.33515C18.7083 7.08685 19.1133 9.51285 17.8167 11.4584C14.6137 8.61375 11.4951 8.22365 7.37215 8.35285C6.31385 8.38635 5.54255 9.19245 4.03325 9.12015C-2.39335 8.81785 -15.0364 0.99205 -19.1133 -4.23715C-19.1133 -4.23715 -11.877 -6.80265 -11.877 -6.80265C-9.38365 -4.20355 -6.40605 -2.45705 -2.70335 -2.53195C-5.71685 -4.19585 -8.78405 -6.03015 -10.6238 -9.09175C-1.56825 -4.91145 14.7085 -11.4584 14.8417 3.18295C14.8417 3.18295 14.8417 3.18555 14.8417 3.18555Z"></path></svg>